<svg version="1.1" viewBox="0.0 0.0 960.0 540.0" fill="none" stroke="none" stroke-linecap="square" stroke-miterlimit="10" xmlns:xlink="http://www.w3.org/1999/xlink" xmlns="http://www.w3.org/2000/svg"><clipPath id="g319d4eac9ee_0_0.0"><path d="m0 0l960.0 0l0 540.0l-960.0 0l0 -540.0z" clip-rule="nonzero"/></clipPath><g clip-path="url(#g319d4eac9ee_0_0.0)"><path fill="#ffffff" d="m0 0l960.0 0l0 540.0l-960.0 0z" fill-rule="evenodd"/><path fill="#efefef" d="m49.010498 55.24672l853.03937 0l0 465.38586l-853.03937 0z" fill-rule="evenodd"/><path stroke="#78909c" stroke-width="1.0" stroke-linejoin="round" stroke-linecap="round" d="m49.010498 55.24672l853.03937 0l0 465.38586l-853.03937 0z" fill-rule="evenodd"/><path fill="#595959" d="m433.11612 75.19594q0 1.96875 -0.6875 3.453125q-0.671875 1.484375 -1.9375 2.296875q-1.265625 0.796875 -2.90625 0.796875q-2.5 0 -4.03125 -1.78125q-1.53125 -1.796875 -1.53125 -4.8125l0 -1.46875q0 -1.953125 0.6875 -3.4375q0.6875 -1.5 1.953125 -2.3125q1.265625 -0.8125 2.90625 -0.8125q1.640625 0 2.890625 0.796875q1.25 0.796875 1.9375 2.25q0.6875 1.4375 0.71875 3.34375l0 1.6875zm-1.203125 -1.53125q0 -2.578125 -1.171875 -4.03125q-1.15625 -1.453125 -3.171875 -1.453125q-1.984375 0 -3.171875 1.46875q-1.171875 1.453125 -1.171875 4.0625l0 1.484375q0 2.53125 1.171875 4.015625q1.171875 1.484375 3.1875 1.484375q2.03125 0 3.171875 -1.453125q1.15625 -1.46875 1.15625 -4.078125l0 -1.5zm8.832031 -1.703125q-0.375 -0.0625 -0.796875 -0.0625q-1.09375 0 -1.84375 0.609375q-0.75 0.609375 -1.078125 1.78125l0 7.25l-1.15625 0l0 -10.5625l1.140625 0l0.015625 1.671875q0.921875 -1.875 2.984375 -1.875q0.484375 0 0.765625 0.125l-0.03125 1.0625zm5.5742188 8.78125q1.21875 0 2.03125 -0.6875q0.828125 -0.6875 0.90625 -1.78125l1.125 0q-0.0625 0.96875 -0.625 1.765625q-0.546875 0.796875 -1.46875 1.25q-0.921875 0.453125 -1.96875 0.453125q-2.09375 0 -3.3125 -1.453125q-1.203125 -1.453125 -1.203125 -3.890625l0 -0.34375q0 -1.5625 0.546875 -2.765625q0.546875 -1.203125 1.5625 -1.859375q1.015625 -0.65625 2.390625 -0.65625q1.734375 0 2.859375 1.046875q1.140625 1.03125 1.21875 2.71875l-1.125 0q-0.078125 -1.25 -0.90625 -2.0q-0.8125 -0.765625 -2.046875 -0.765625q-1.578125 0 -2.453125 1.140625q-0.875 1.140625 -0.875 3.203125l0 0.34375q0 2.015625 0.875 3.15625q0.875 1.125 2.46875 1.125zm7.5527344 -7.984375q0.578125 -0.953125 1.46875 -1.46875q0.90625 -0.515625 1.96875 -0.515625q1.703125 0 2.53125 0.96875q0.828125 0.953125 0.84375 2.859375l0 6.9375l-1.171875 0l0 -6.9375q0 -1.421875 -0.59375 -2.109375q-0.59375 -0.703125 -1.890625 -0.703125q-1.09375 0 -1.921875 0.6875q-0.828125 0.671875 -1.234375 1.828125l0 7.234375l-1.15625 0l0 -15.0l1.15625 0l0 6.21875zm13.8984375 8.984375q-1.34375 0 -2.4375 -0.671875q-1.078125 -0.671875 -1.6875 -1.84375q-0.609375 -1.1875 -0.609375 -2.671875l0 -0.421875q0 -1.515625 0.59375 -2.734375q0.59375 -1.21875 1.640625 -1.921875q1.0625 -0.703125 2.296875 -0.703125q1.921875 0 3.046875 1.3125q1.125 1.3125 1.125 3.59375l0 0.65625l-7.53125 0l0 0.21875q0 1.796875 1.03125 3.0q1.03125 1.1875 2.59375 1.1875q0.9375 0 1.640625 -0.328125q0.71875 -0.34375 1.3125 -1.109375l0.734375 0.5625q-1.296875 1.875 -3.75 1.875zm-0.203125 -9.96875q-1.328125 0 -2.234375 0.96875q-0.890625 0.96875 -1.09375 2.59375l6.34375 0l0 -0.125q-0.046875 -1.53125 -0.875 -2.484375q-0.8125 -0.953125 -2.140625 -0.953125zm12.785156 7.078125q0 -0.875 -0.703125 -1.390625q-0.703125 -0.53125 -2.109375 -0.828125q-1.40625 -0.296875 -2.1875 -0.6875q-0.765625 -0.390625 -1.140625 -0.9375q-0.375 -0.5625 -0.375 -1.34375q0 -1.25 1.03125 -2.0625q1.046875 -0.828125 2.6875 -0.828125q1.765625 0 2.828125 0.875q1.078125 0.875 1.078125 2.28125l-1.171875 0q0 -0.921875 -0.78125 -1.53125q-0.78125 -0.625 -1.953125 -0.625q-1.15625 0 -1.859375 0.515625q-0.6875 0.515625 -0.6875 1.328125q0 0.796875 0.578125 1.234375q0.578125 0.421875 2.109375 0.796875q1.546875 0.359375 2.3125 0.765625q0.765625 0.40625 1.140625 0.984375q0.375 0.578125 0.375 1.390625q0 1.34375 -1.09375 2.15625q-1.078125 0.796875 -2.8125 0.796875q-1.84375 0 -3.0 -0.890625q-1.140625 -0.90625 -1.140625 -2.265625l1.171875 0q0.078125 1.015625 0.859375 1.59375q0.796875 0.5625 2.109375 0.5625q1.21875 0 1.96875 -0.53125q0.765625 -0.53125 0.765625 -1.359375zm5.611328 -10.578125l0 2.703125l2.1875 0l0 0.953125l-2.1875 0l0 7.046875q0 0.875 0.3125 1.3125q0.3125 0.421875 1.0625 0.421875q0.296875 0 0.953125 -0.09375l0.046875 0.953125q-0.46875 0.171875 -1.25 0.171875q-1.203125 0 -1.75 -0.703125q-0.546875 -0.703125 -0.546875 -2.0625l0 -7.046875l-1.953125 0l0 -0.953125l1.953125 0l0 -2.703125l1.171875 0zm9.488281 3.6875q-0.375 -0.0625 -0.796875 -0.0625q-1.09375 0 -1.84375 0.609375q-0.75 0.609375 -1.078125 1.78125l0 7.25l-1.15625 0l0 -10.5625l1.140625 0l0.015625 1.671875q0.921875 -1.875 2.984375 -1.875q0.484375 0 0.765625 0.125l-0.03125 1.0625zm8.119141 9.578125q-0.171875 -0.5 -0.21875 -1.46875q-0.609375 0.796875 -1.5625 1.234375q-0.953125 0.4375 -2.015625 0.4375q-1.53125 0 -2.46875 -0.84375q-0.9375 -0.859375 -0.9375 -2.15625q0 -1.546875 1.28125 -2.4375q1.28125 -0.90625 3.578125 -0.90625l2.109375 0l0 -1.203125q0 -1.140625 -0.703125 -1.78125q-0.6875 -0.65625 -2.03125 -0.65625q-1.21875 0 -2.015625 0.625q-0.796875 0.625 -0.796875 1.515625l-1.171875 -0.015625q0 -1.265625 1.171875 -2.1875q1.171875 -0.921875 2.875 -0.921875q1.765625 0 2.78125 0.890625q1.03125 0.875 1.0625 2.46875l0 5.0q0 1.53125 0.3125 2.28125l0 0.125l-1.25 0zm-3.671875 -0.84375q1.171875 0 2.09375 -0.5625q0.9375 -0.5625 1.34375 -1.515625l0 -2.328125l-2.078125 0q-1.75 0.03125 -2.734375 0.65625q-0.984375 0.609375 -0.984375 1.6875q0 0.890625 0.65625 1.484375q0.65625 0.578125 1.703125 0.578125zm9.541016 -12.421875l0 2.703125l2.1875 0l0 0.953125l-2.1875 0l0 7.046875q0 0.875 0.3125 1.3125q0.3125 0.421875 1.0625 0.421875q0.296875 0 0.953125 -0.09375l0.046875 0.953125q-0.46875 0.171875 -1.25 0.171875q-1.203125 0 -1.75 -0.703125q-0.546875 -0.703125 -0.546875 -2.0625l0 -7.046875l-1.953125 0l0 -0.953125l1.953125 0l0 -2.703125l1.171875 0zm3.7617493 7.828125q0 -1.53125 0.59375 -2.75q0.59375 -1.21875 1.671875 -1.890625q1.078125 -0.6875 2.453125 -0.6875q2.109375 0 3.40625 1.484375q1.3125 1.484375 1.3125 3.921875l0 0.234375q0 1.546875 -0.59375 2.765625q-0.59375 1.21875 -1.671875 1.890625q-1.0625 0.671875 -2.4375 0.671875q-2.109375 0 -3.421875 -1.484375q-1.3125 -1.484375 -1.3125 -3.921875l0 -0.234375zm1.171875 0.3125q0 1.90625 0.984375 3.125q0.984375 1.203125 2.578125 1.203125q1.578125 0 2.5625 -1.203125q0.984375 -1.21875 0.984375 -3.21875l0 -0.21875q0 -1.21875 -0.453125 -2.21875q-0.453125 -1.0 -1.265625 -1.546875q-0.8125 -0.5625 -1.84375 -0.5625q-1.5625 0 -2.5625 1.234375q-0.984375 1.21875 -0.984375 3.203125l0 0.203125zm15.560547 -4.453125q-0.375 -0.0625 -0.796875 -0.0625q-1.09375 0 -1.84375 0.609375q-0.75 0.609375 -1.078125 1.78125l0 7.25l-1.15625 0l0 -10.5625l1.140625 0l0.015625 1.671875q0.921875 -1.875 2.984375 -1.875q0.484375 0 0.765625 0.125l-0.03125 1.0625z" fill-rule="nonzero"/><path fill="#595959" d="m418.28897 102.03968q0 -1.171875 -0.828125 -1.859375q-0.828125 -0.703125 -3.046875 -1.3125q-2.203125 -0.625 -3.21875 -1.359375q-1.4375 -1.03125 -1.4375 -2.71875q0 -1.625 1.34375 -2.640625q1.34375 -1.03125 3.421875 -1.03125q1.421875 0 2.53125 0.546875q1.125 0.546875 1.734375 1.53125q0.625 0.96875 0.625 2.171875l-1.21875 0q0 -1.453125 -1.0 -2.328125q-0.984375 -0.890625 -2.671875 -0.890625q-1.625 0 -2.59375 0.734375q-0.96875 0.71875 -0.96875 1.890625q0 1.09375 0.875 1.78125q0.875 0.671875 2.78125 1.203125q1.921875 0.515625 2.90625 1.078125q0.984375 0.5625 1.484375 1.34375q0.5 0.78125 0.5 1.84375q0 1.671875 -1.34375 2.703125q-1.34375 1.015625 -3.546875 1.015625q-1.5 0 -2.765625 -0.53125q-1.25 -0.546875 -1.90625 -1.515625q-0.640625 -0.96875 -0.640625 -2.21875l1.203125 0q0 1.5 1.125 2.375q1.125 0.859375 2.984375 0.859375q1.65625 0 2.65625 -0.71875q1.015625 -0.734375 1.015625 -1.953125zm4.595703 -7.0625l0.03125 1.71875q0.59375 -0.96875 1.46875 -1.4375q0.875 -0.484375 1.953125 -0.484375q2.5 0 3.171875 2.046875q0.5625 -0.984375 1.515625 -1.515625q0.953125 -0.53125 2.09375 -0.53125q3.390625 0 3.46875 3.71875l0 7.046875l-1.171875 0l0 -6.96875q-0.015625 -1.40625 -0.625 -2.09375q-0.59375 -0.6875 -1.953125 -0.6875q-1.25 0.015625 -2.125 0.8125q-0.875 0.796875 -0.96875 1.9375l0 7.0l-1.171875 0l0 -7.046875q-0.015625 -1.359375 -0.640625 -2.03125q-0.625 -0.671875 -1.9375 -0.671875q-1.109375 0 -1.90625 0.640625q-0.78125 0.625 -1.15625 1.859375l0 7.25l-1.171875 0l0 -10.5625l1.125 0zm23.31836 10.5625q-0.171875 -0.5 -0.21875 -1.46875q-0.609375 0.796875 -1.5625 1.234375q-0.953125 0.4375 -2.015625 0.4375q-1.53125 0 -2.46875 -0.84375q-0.9375 -0.859375 -0.9375 -2.15625q0 -1.546875 1.28125 -2.4375q1.28125 -0.90625 3.578125 -0.90625l2.109375 0l0 -1.203125q0 -1.140625 -0.703125 -1.78125q-0.6875 -0.65625 -2.03125 -0.65625q-1.21875 0 -2.015625 0.625q-0.796875 0.625 -0.796875 1.515625l-1.171875 -0.015625q0 -1.265625 1.171875 -2.1875q1.171875 -0.921875 2.875 -0.921875q1.765625 0 2.78125 0.890625q1.03125 0.875 1.0625 2.46875l0 5.0q0 1.53125 0.3125 2.28125l0 0.125l-1.25 0zm-3.671875 -0.84375q1.171875 0 2.09375 -0.5625q0.9375 -0.5625 1.34375 -1.515625l0 -2.328125l-2.078125 0q-1.75 0.03125 -2.734375 0.65625q-0.984375 0.609375 -0.984375 1.6875q0 0.890625 0.65625 1.484375q0.65625 0.578125 1.703125 0.578125zm12.603516 -8.734375q-0.375 -0.0625 -0.796875 -0.0625q-1.09375 0 -1.84375 0.609375q-0.75 0.609375 -1.078125 1.78125l0 7.25l-1.15625 0l0 -10.5625l1.140625 0l0.015625 1.671875q0.921875 -1.875 2.984375 -1.875q0.484375 0 0.765625 0.125l-0.03125 1.0625zm4.154297 -3.6875l0 2.703125l2.1875 0l0 0.953125l-2.1875 0l0 7.046875q0 0.875 0.3125 1.3125q0.3125 0.421875 1.0625 0.421875q0.296875 0 0.953125 -0.09375l0.046875 0.953125q-0.46875 0.171875 -1.25 0.171875q-1.203125 0 -1.75 -0.703125q-0.546875 -0.703125 -0.546875 -2.0625l0 -7.046875l-1.953125 0l0 -0.953125l1.953125 0l0 -2.703125l1.171875 0zm19.804688 8.828125q-0.234375 2.25 -1.609375 3.453125q-1.359375 1.1875 -3.625 1.1875q-1.578125 0 -2.796875 -0.796875q-1.203125 -0.796875 -1.875 -2.234375q-0.65625 -1.453125 -0.671875 -3.328125l0 -1.84375q0 -1.890625 0.65625 -3.359375q0.671875 -1.46875 1.90625 -2.265625q1.25 -0.796875 2.875 -0.796875q2.28125 0 3.609375 1.25q1.328125 1.234375 1.53125 3.40625l-1.203125 0q-0.453125 -3.625 -3.9375 -3.625q-1.9375 0 -3.09375 1.453125q-1.140625 1.4375 -1.140625 3.984375l0 1.734375q0 2.46875 1.125 3.9375q1.125 1.453125 3.015625 1.453125q1.890625 0 2.84375 -0.890625q0.96875 -0.90625 1.1875 -2.71875l1.203125 0zm2.0039062 -1.0q0 -1.53125 0.59375 -2.75q0.59375 -1.21875 1.671875 -1.890625q1.078125 -0.6875 2.453125 -0.6875q2.109375 0 3.40625 1.484375q1.3125 1.484375 1.3125 3.921875l0 0.234375q0 1.546875 -0.59375 2.765625q-0.59375 1.21875 -1.671875 1.890625q-1.0625 0.671875 -2.4375 0.671875q-2.109375 0 -3.421875 -1.484375q-1.3125 -1.484375 -1.3125 -3.921875l0 -0.234375zm1.171875 0.3125q0 1.90625 0.984375 3.125q0.984375 1.203125 2.578125 1.203125q1.578125 0 2.5625 -1.203125q0.984375 -1.21875 0.984375 -3.21875l0 -0.21875q0 -1.21875 -0.453125 -2.21875q-0.453125 -1.0 -1.265625 -1.546875q-0.8125 -0.5625 -1.84375 -0.5625q-1.5625 0 -2.5625 1.234375q-0.984375 1.21875 -0.984375 3.203125l0 0.203125zm11.794922 -5.4375l0.03125 1.796875q0.59375 -0.96875 1.484375 -1.484375q0.890625 -0.515625 1.96875 -0.515625q1.703125 0 2.53125 0.96875q0.828125 0.953125 0.84375 2.859375l0 6.9375l-1.171875 0l0 -6.9375q0 -1.421875 -0.59375 -2.109375q-0.59375 -0.703125 -1.890625 -0.703125q-1.09375 0 -1.921875 0.6875q-0.828125 0.671875 -1.234375 1.828125l0 7.234375l-1.15625 0l0 -10.5625l1.109375 0zm11.689453 -2.703125l0 2.703125l2.1875 0l0 0.953125l-2.1875 0l0 7.046875q0 0.875 0.3125 1.3125q0.3125 0.421875 1.0625 0.421875q0.296875 0 0.953125 -0.09375l0.046875 0.953125q-0.46875 0.171875 -1.25 0.171875q-1.203125 0 -1.75 -0.703125q-0.546875 -0.703125 -0.546875 -2.0625l0 -7.046875l-1.953125 0l0 -0.953125l1.953125 0l0 -2.703125l1.171875 0zm9.488312 3.6875q-0.375 -0.0625 -0.796875 -0.0625q-1.09375 0 -1.84375 0.609375q-0.7500305 0.609375 -1.0781555 1.78125l0 7.25l-1.15625 0l0 -10.5625l1.140625 0l0.015625 1.671875q0.9219055 -1.875 2.9844055 -1.875q0.484375 0 0.765625 0.125l-0.03125 1.0625zm8.119141 9.578125q-0.171875 -0.5 -0.21875 -1.46875q-0.609375 0.796875 -1.5625 1.234375q-0.953125 0.4375 -2.015625 0.4375q-1.53125 0 -2.46875 -0.84375q-0.9375 -0.859375 -0.9375 -2.15625q0 -1.546875 1.28125 -2.4375q1.28125 -0.90625 3.578125 -0.90625l2.109375 0l0 -1.203125q0 -1.140625 -0.703125 -1.78125q-0.6875 -0.65625 -2.03125 -0.65625q-1.21875 0 -2.015625 0.625q-0.796875 0.625 -0.796875 1.515625l-1.171875 -0.015625q0 -1.265625 1.171875 -2.1875q1.171875 -0.921875 2.875 -0.921875q1.765625 0 2.78125 0.890625q1.03125 0.875 1.0625 2.46875l0 5.0q0 1.53125 0.3125 2.28125l0 0.125l-1.25 0zm-3.671875 -0.84375q1.171875 0 2.09375 -0.5625q0.9375 -0.5625 1.34375 -1.515625l0 -2.328125l-2.078125 0q-1.75 0.03125 -2.734375 0.65625q-0.984375 0.609375 -0.984375 1.6875q0 0.890625 0.65625 1.484375q0.65625 0.578125 1.703125 0.578125zm11.634766 0.046875q1.21875 0 2.03125 -0.6875q0.828125 -0.6875 0.90625 -1.78125l1.125 0q-0.0625 0.96875 -0.625 1.765625q-0.546875 0.796875 -1.46875 1.25q-0.921875 0.453125 -1.96875 0.453125q-2.09375 0 -3.3125 -1.453125q-1.203125 -1.453125 -1.203125 -3.890625l0 -0.34375q0 -1.5625 0.546875 -2.765625q0.546875 -1.203125 1.5625 -1.859375q1.015625 -0.65625 2.390625 -0.65625q1.734375 0 2.859375 1.046875q1.140625 1.03125 1.21875 2.71875l-1.125 0q-0.078125 -1.25 -0.90625 -2.0q-0.8125 -0.765625 -2.046875 -0.765625q-1.578125 0 -2.453125 1.140625q-0.875 1.140625 -0.875 3.203125l0 0.34375q0 2.015625 0.875 3.15625q0.875 1.125 2.46875 1.125zm8.208984 -12.46875l0 2.703125l2.1875 0l0 0.953125l-2.1875 0l0 7.046875q0 0.875 0.3125 1.3125q0.3125 0.421875 1.0625 0.421875q0.296875 0 0.953125 -0.09375l0.046875 0.953125q-0.46875 0.171875 -1.25 0.171875q-1.203125 0 -1.75 -0.703125q-0.546875 -0.703125 -0.546875 -2.0625l0 -7.046875l-1.953125 0l0 -0.953125l1.953125 0l0 -2.703125l1.171875 0z" fill-rule="nonzero"/><path fill="#ead1dc" d="m84.049866 281.94226l162.3937 0l0 83.55905l-162.3937 0z" fill-rule="evenodd"/><path stroke="#78909c" stroke-width="1.0" stroke-linejoin="round" stroke-linecap="round" d="m84.049866 281.94226l162.3937 0l0 83.55905l-162.3937 0z" fill-rule="evenodd"/><path fill="#595959" d="m107.16494 330.44177l0 -13.265625l3.71875 0q1.625 0 2.90625 0.75q1.296875 0.734375 2.015625 2.125q0.734375 1.375 0.734375 3.15625l0 1.21875q0 1.765625 -0.71875 3.140625q-0.71875 1.375 -2.03125 2.125q-1.296875 0.75 -3.0 0.75l-3.625 0zm1.125 -12.3125l0 11.359375l2.515625 0q2.09375 0 3.359375 -1.375q1.265625 -1.390625 1.265625 -3.765625l0 -1.171875q0 -2.28125 -1.25 -3.65625q-1.25 -1.375 -3.28125 -1.390625l-2.609375 0zm17.059586 12.3125q-0.15625 -0.46875 -0.203125 -1.375q-0.578125 0.75 -1.46875 1.15625q-0.890625 0.40625 -1.875 0.40625q-1.421875 0 -2.3125 -0.796875q-0.875 -0.796875 -0.875 -2.0q0 -1.4375 1.203125 -2.28125q1.203125 -0.84375 3.34375 -0.84375l1.96875 0l0 -1.109375q0 -1.0625 -0.65625 -1.671875q-0.640625 -0.609375 -1.890625 -0.609375q-1.140625 0 -1.890625 0.59375q-0.75 0.578125 -0.75 1.40625l-1.09375 -0.015625q0 -1.171875 1.09375 -2.03125q1.09375 -0.859375 2.6875 -0.859375q1.65625 0 2.609375 0.828125q0.953125 0.8125 0.984375 2.28125l0 4.671875q0 1.4375 0.296875 2.140625l0 0.109375l-1.171875 0zm-3.421875 -0.78125q1.09375 0 1.953125 -0.53125q0.859375 -0.53125 1.25 -1.40625l0 -2.171875l-1.953125 0q-1.625 0.015625 -2.546875 0.59375q-0.921875 0.578125 -0.921875 1.59375q0 0.828125 0.609375 1.375q0.625 0.546875 1.609375 0.546875zm8.883751 -11.59375l0 2.515625l2.046875 0l0 0.890625l-2.046875 0l0 6.578125q0 0.8125 0.296875 1.21875q0.296875 0.390625 1.0 0.390625q0.265625 0 0.875 -0.078125l0.046875 0.890625q-0.421875 0.15625 -1.171875 0.15625q-1.109375 0 -1.625 -0.65625q-0.515625 -0.65625 -0.515625 -1.921875l0 -6.578125l-1.8125076 0l0 -0.890625l1.8125076 0l0 -2.515625l1.09375 0zm10.525299 12.375q-0.15625 -0.46875 -0.203125 -1.375q-0.578125 0.75 -1.46875 1.15625q-0.890625 0.40625 -1.875 0.40625q-1.421875 0 -2.3125 -0.796875q-0.875 -0.796875 -0.875 -2.0q0 -1.4375 1.203125 -2.28125q1.203125 -0.84375 3.34375 -0.84375l1.96875 0l0 -1.109375q0 -1.0625 -0.65625 -1.671875q-0.640625 -0.609375 -1.890625 -0.609375q-1.140625 0 -1.890625 0.59375q-0.75 0.578125 -0.75 1.40625l-1.09375 -0.015625q0 -1.171875 1.09375 -2.03125q1.09375 -0.859375 2.6875 -0.859375q1.65625 0 2.609375 0.828125q0.953125 0.8125 0.984375 2.28125l0 4.671875q0 1.4375 0.296875 2.140625l0 0.109375l-1.171875 0zm-3.421875 -0.78125q1.09375 0 1.953125 -0.53125q0.859375 -0.53125 1.25 -1.40625l0 -2.171875l-1.953125 0q-1.625 0.015625 -2.546875 0.59375q-0.921875 0.578125 -0.921875 1.59375q0 0.828125 0.609375 1.375q0.625 0.546875 1.609375 0.546875zm13.107773 -4.625l0 5.40625l-1.125 0l0 -13.265625l4.515625 0q2.078125 0 3.265625 1.0625q1.203125 1.046875 1.203125 2.90625q0 1.859375 -1.15625 2.875q-1.140625 1.015625 -3.328125 1.015625l-3.375 0zm0 -0.9375l3.390625 0q1.640625 0 2.484375 -0.765625q0.859375 -0.78125 0.859375 -2.171875q0 -1.375 -0.859375 -2.1875q-0.84375 -0.8125 -2.40625 -0.84375l-3.46875 0l0 5.96875zm14.658951 -2.578125q-0.34375 -0.0625 -0.734375 -0.0625q-1.015625 0 -1.71875 0.5625q-0.703125 0.5625 -1.015625 1.65625l0 6.765625l-1.078125 0l0 -9.859375l1.0625 0l0.015625 1.5625q0.875 -1.734375 2.78125 -1.734375q0.453125 0 0.71875 0.109375l-0.03125 1.0zm0.9378967 3.84375q0 -1.421875 0.546875 -2.546875q0.5625 -1.140625 1.5625 -1.765625q1.015625 -0.640625 2.28125 -0.640625q1.96875 0 3.1875 1.375q1.234375 1.375 1.234375 3.65625l0 0.234375q0 1.421875 -0.5625 2.5625q-0.546875 1.140625 -1.546875 1.765625q-1.0 0.625 -2.28125 0.625q-1.96875 0 -3.203125 -1.375q-1.21875 -1.390625 -1.21875 -3.671875l0 -0.21875zm1.09375 0.3125q0 1.765625 0.921875 2.90625q0.921875 1.125 2.40625 1.125q1.46875 0 2.375 -1.125q0.921875 -1.140625 0.921875 -3.0l0 -0.21875q0 -1.125 -0.421875 -2.0625q-0.40625 -0.9375 -1.171875 -1.453125q-0.75 -0.515625 -1.734375 -0.515625q-1.453125 0 -2.375 1.140625q-0.921875 1.140625 -0.921875 3.0l0 0.203125zm12.889999 3.265625l3.0 -8.359375l1.125 0l-3.6875 9.859375l-0.875 0l-3.703125 -9.859375l1.125 0l3.015625 8.359375zm7.1291046 1.5l-1.09375 0l0 -9.859375l1.09375 0l0 9.859375zm-1.28125 -12.703125q0 -0.3125 0.203125 -0.53125q0.203125 -0.21875 0.546875 -0.21875q0.34375 0 0.546875 0.21875q0.203125 0.21875 0.203125 0.53125q0 0.3125 -0.203125 0.515625q-0.203125 0.203125 -0.546875 0.203125q-0.34375 0 -0.546875 -0.203125q-0.203125 -0.203125 -0.203125 -0.515625zm3.8062592 7.6875q0 -2.296875 1.015625 -3.65625q1.03125 -1.359375 2.796875 -1.359375q1.984375 0 3.03125 1.5625l0 -5.53125l1.09375 0l0 14.0l-1.03125 0l-0.03125 -1.3125q-1.046875 1.5 -3.09375 1.5q-1.703125 0 -2.75 -1.375q-1.03125 -1.375 -1.03125 -3.703125l0 -0.125zm1.109375 0.1875q0 1.890625 0.75 2.984375q0.75 1.078125 2.125 1.078125q2.015625 0 2.859375 -1.78125l0 -4.625q-0.84375 -1.921875 -2.84375 -1.921875q-1.375 0 -2.140625 1.078125q-0.75 1.078125 -0.75 3.1875zm13.507233 5.015625q-1.25 0 -2.265625 -0.625q-1.015625 -0.625 -1.59375 -1.71875q-0.5625 -1.109375 -0.5625 -2.484375l0 -0.390625q0 -1.421875 0.546875 -2.5625q0.5625 -1.140625 1.546875 -1.78125q0.984375 -0.65625 2.125 -0.65625q1.796875 0 2.84375 1.21875q1.0625 1.21875 1.0625 3.34375l0 0.609375l-7.03125 0l0 0.21875q0 1.671875 0.953125 2.796875q0.96875 1.109375 2.421875 1.109375q0.875 0 1.546875 -0.3125q0.671875 -0.328125 1.21875 -1.03125l0.6875 0.515625q-1.203125 1.75 -3.5 1.75zm-0.203125 -9.296875q-1.21875 0 -2.0625 0.90625q-0.84375 0.890625 -1.03125 2.421875l5.921875 0l0 -0.125q-0.046875 -1.421875 -0.8125 -2.3125q-0.765625 -0.890625 -2.015625 -0.890625zm10.575333 0.1875q-0.34375 -0.0625 -0.734375 -0.0625q-1.015625 0 -1.71875 0.5625q-0.703125 0.5625 -1.0156097 1.65625l0 6.765625l-1.078125 0l0 -9.859375l1.0625 0l0.015625 1.5625q0.87498474 -1.734375 2.7812347 -1.734375q0.453125 0 0.71875 0.109375l-0.03125 1.0zm7.6358337 6.421875q0 -0.8125 -0.65625 -1.296875q-0.65625 -0.5 -1.96875 -0.78125q-1.3125 -0.28125 -2.03125 -0.640625q-0.71875 -0.359375 -1.078125 -0.875q-0.34375 -0.515625 -0.34375 -1.25q0 -1.171875 0.96875 -1.921875q0.984375 -0.765625 2.5 -0.765625q1.65625 0 2.640625 0.8125q1.0 0.8125 1.0 2.125l-1.09375 0q0 -0.875 -0.71875 -1.4375q-0.71875 -0.578125 -1.828125 -0.578125q-1.078125 0 -1.734375 0.484375q-0.640625 0.46875 -0.640625 1.234375q0 0.734375 0.53125 1.140625q0.546875 0.40625 1.984375 0.75q1.4375 0.328125 2.140625 0.71875q0.71875 0.375 1.0625 0.921875q0.359375 0.53125 0.359375 1.296875q0 1.25 -1.015625 2.0q-1.0 0.75 -2.625 0.75q-1.71875 0 -2.796875 -0.828125q-1.0625 -0.84375 -1.0625 -2.125l1.09375 0q0.0625 0.96875 0.796875 1.5q0.75 0.53125 1.96875 0.53125q1.140625 0 1.84375 -0.5q0.703125 -0.5 0.703125 -1.265625z" fill-rule="nonzero"/><path fill="#d9ead3" d="m655.9554 281.94226l162.39368 0l0 83.55905l-162.39368 0z" fill-rule="evenodd"/><path stroke="#78909c" stroke-width="1.0" stroke-linejoin="round" stroke-linecap="round" d="m655.9554 281.94226l162.39368 0l0 83.55905l-162.39368 0z" fill-rule="evenodd"/><path fill="#595959" d="m670.2569 330.44177l0 -13.265625l3.71875 0q1.625 0 2.90625 0.75q1.296875 0.734375 2.015625 2.125q0.734375 1.375 0.734375 3.15625l0 1.21875q0 1.765625 -0.71875 3.140625q-0.71875 1.375 -2.03125 2.125q-1.296875 0.75 -3.0 0.75l-3.625 0zm1.125 -12.3125l0 11.359375l2.515625 0q2.09375 0 3.359375 -1.375q1.265625 -1.390625 1.265625 -3.765625l0 -1.171875q0 -2.28125 -1.25 -3.65625q-1.25 -1.375 -3.28125 -1.390625l-2.609375 0zm17.059631 12.3125q-0.15625 -0.46875 -0.203125 -1.375q-0.578125 0.75 -1.46875 1.15625q-0.890625 0.40625 -1.875 0.40625q-1.421875 0 -2.3125 -0.796875q-0.875 -0.796875 -0.875 -2.0q0 -1.4375 1.203125 -2.28125q1.203125 -0.84375 3.34375 -0.84375l1.96875 0l0 -1.109375q0 -1.0625 -0.65625 -1.671875q-0.640625 -0.609375 -1.890625 -0.609375q-1.140625 0 -1.890625 0.59375q-0.75 0.578125 -0.75 1.40625l-1.09375 -0.015625q0 -1.171875 1.09375 -2.03125q1.09375 -0.859375 2.6875 -0.859375q1.65625 0 2.609375 0.828125q0.953125 0.8125 0.984375 2.28125l0 4.671875q0 1.4375 0.296875 2.140625l0 0.109375l-1.171875 0zm-3.421875 -0.78125q1.09375 0 1.953125 -0.53125q0.859375 -0.53125 1.25 -1.40625l0 -2.171875l-1.953125 0q-1.625 0.015625 -2.546875 0.59375q-0.921875 0.578125 -0.921875 1.59375q0 0.828125 0.609375 1.375q0.625 0.546875 1.609375 0.546875zm8.883728 -11.59375l0 2.515625l2.046875 0l0 0.890625l-2.046875 0l0 6.578125q0 0.8125 0.296875 1.21875q0.296875 0.390625 1.0 0.390625q0.265625 0 0.875 -0.078125l0.046875 0.890625q-0.421875 0.15625 -1.171875 0.15625q-1.109375 0 -1.625 -0.65625q-0.515625 -0.65625 -0.515625 -1.921875l0 -6.578125l-1.8125 0l0 -0.890625l1.8125 0l0 -2.515625l1.09375 0zm10.525269 12.375q-0.15625 -0.46875 -0.203125 -1.375q-0.578125 0.75 -1.46875 1.15625q-0.890625 0.40625 -1.875 0.40625q-1.421875 0 -2.3125 -0.796875q-0.875 -0.796875 -0.875 -2.0q0 -1.4375 1.203125 -2.28125q1.203125 -0.84375 3.34375 -0.84375l1.96875 0l0 -1.109375q0 -1.0625 -0.65625 -1.671875q-0.640625 -0.609375 -1.890625 -0.609375q-1.140625 0 -1.890625 0.59375q-0.75 0.578125 -0.75 1.40625l-1.09375 -0.015625q0 -1.171875 1.09375 -2.03125q1.09375 -0.859375 2.6875 -0.859375q1.65625 0 2.609375 0.828125q0.953125 0.8125 0.984375 2.28125l0 4.671875q0 1.4375 0.296875 2.140625l0 0.109375l-1.171875 0zm-3.421875 -0.78125q1.09375 0 1.953125 -0.53125q0.859375 -0.53125 1.25 -1.40625l0 -2.171875l-1.953125 0q-1.625 0.015625 -2.546875 0.59375q-0.921875 0.578125 -0.921875 1.59375q0 0.828125 0.609375 1.375q0.625 0.546875 1.609375 0.546875zm21.373413 -3.359375q-0.21875 2.09375 -1.5 3.21875q-1.265625 1.109375 -3.375 1.109375q-1.484375 0 -2.625 -0.734375q-1.125 -0.75 -1.75 -2.09375q-0.609375 -1.359375 -0.625 -3.09375l0 -1.71875q0 -1.78125 0.625 -3.140625q0.625 -1.359375 1.78125 -2.109375q1.15625 -0.75 2.671875 -0.75q2.140625 0 3.375 1.15625q1.234375 1.15625 1.421875 3.1875l-1.125 0q-0.421875 -3.375 -3.671875 -3.375q-1.796875 0 -2.875 1.34375q-1.0625 1.34375 -1.0625 3.71875l0 1.625q0 2.296875 1.03125 3.671875q1.046875 1.359375 2.828125 1.359375q1.75 0 2.640625 -0.84375q0.90625 -0.84375 1.109375 -2.53125l1.125 0zm1.8656616 -0.9375q0 -1.421875 0.546875 -2.546875q0.5625 -1.140625 1.5625 -1.765625q1.015625 -0.640625 2.28125 -0.640625q1.96875 0 3.1875 1.375q1.234375 1.375 1.234375 3.65625l0 0.234375q0 1.421875 -0.5625 2.5625q-0.546875 1.140625 -1.546875 1.765625q-1.0 0.625 -2.28125 0.625q-1.96875 0 -3.203125 -1.375q-1.21875 -1.390625 -1.21875 -3.671875l0 -0.21875zm1.09375 0.3125q0 1.765625 0.921875 2.90625q0.921875 1.125 2.40625 1.125q1.46875 0 2.375 -1.125q0.921875 -1.140625 0.921875 -3.0l0 -0.21875q0 -1.125 -0.421875 -2.0625q-0.40625 -0.9375 -1.171875 -1.453125q-0.75 -0.515625 -1.734375 -0.515625q-1.453125 0 -2.375 1.140625q-0.921875 1.140625 -0.921875 3.0l0 0.203125zm10.995422 -5.09375l0.046875 1.6875q0.546875 -0.90625 1.375 -1.375q0.828125 -0.484375 1.84375 -0.484375q1.578125 0 2.34375 0.890625q0.78125 0.890625 0.796875 2.671875l0 6.46875l-1.09375 0l0 -6.484375q0 -1.3125 -0.5625 -1.953125q-0.546875 -0.65625 -1.75 -0.65625q-1.015625 0 -1.796875 0.640625q-0.78125 0.625 -1.15625 1.703125l0 6.75l-1.078125 0l0 -9.859375l1.03125 0zm15.12323 7.359375q0 -0.8125 -0.65625 -1.296875q-0.65625 -0.5 -1.96875 -0.78125q-1.3125 -0.28125 -2.03125 -0.640625q-0.71875 -0.359375 -1.078125 -0.875q-0.34375 -0.515625 -0.34375 -1.25q0 -1.171875 0.96875 -1.921875q0.984375 -0.765625 2.5 -0.765625q1.65625 0 2.640625 0.8125q1.0 0.8125 1.0 2.125l-1.09375 0q0 -0.875 -0.71875 -1.4375q-0.71875 -0.578125 -1.828125 -0.578125q-1.078125 0 -1.734375 0.484375q-0.640625 0.46875 -0.640625 1.234375q0 0.734375 0.53125 1.140625q0.546875 0.40625 1.984375 0.75q1.4375 0.328125 2.140625 0.71875q0.71875 0.375 1.0625 0.921875q0.359375 0.53125 0.359375 1.296875q0 1.25 -1.015625 2.0q-1.0 0.75 -2.625 0.75q-1.71875 0 -2.796875 -0.828125q-1.0625 -0.84375 -1.0625 -2.125l1.09375 0q0.0625 0.96875 0.796875 1.5q0.75 0.53125 1.96875 0.53125q1.140625 0 1.84375 -0.5q0.703125 -0.5 0.703125 -1.265625zm9.884033 1.25q-0.984375 1.4375 -3.140625 1.4375q-1.578125 0 -2.40625 -0.921875q-0.8125 -0.921875 -0.828125 -2.703125l0 -6.421875l1.078125 0l0 6.28125q0 2.8125 2.28125 2.8125q2.359375 0 3.0 -1.953125l0 -7.140625l1.09375 0l0 9.859375l-1.0625 0l-0.015625 -1.25zm4.888794 -8.609375l0.046875 1.609375q0.546875 -0.890625 1.359375 -1.328125q0.828125 -0.453125 1.828125 -0.453125q2.328125 0 2.953125 1.90625q0.53125 -0.921875 1.40625 -1.40625q0.890625 -0.5 1.953125 -0.5q3.171875 0 3.234375 3.453125l0 6.578125l-1.09375 0l0 -6.5q0 -1.3125 -0.5625 -1.953125q-0.5625 -0.640625 -1.828125 -0.640625q-1.171875 0.015625 -1.984375 0.765625q-0.8125 0.734375 -0.90625 1.8125l0 6.515625l-1.09375 0l0 -6.578125q0 -1.265625 -0.59375 -1.890625q-0.578125 -0.625 -1.8125 -0.625q-1.015625 0 -1.765625 0.59375q-0.734375 0.578125 -1.09375 1.734375l0 6.765625l-1.09375 0l0 -9.859375l1.046875 0zm19.361877 10.046875q-1.25 0 -2.265625 -0.625q-1.015625 -0.625 -1.59375 -1.71875q-0.5625 -1.109375 -0.5625 -2.484375l0 -0.390625q0 -1.421875 0.546875 -2.5625q0.5625 -1.140625 1.546875 -1.78125q0.984375 -0.65625 2.125 -0.65625q1.796875 0 2.84375 1.21875q1.0625 1.21875 1.0625 3.34375l0 0.609375l-7.03125 0l0 0.21875q0 1.671875 0.953125 2.796875q0.96875 1.109375 2.421875 1.109375q0.875 0 1.546875 -0.3125q0.671875 -0.328125 1.21875 -1.03125l0.6875 0.515625q-1.203125 1.75 -3.5 1.75zm-0.203125 -9.296875q-1.21875 0 -2.0625 0.90625q-0.84375 0.890625 -1.03125 2.421875l5.921875 0l0 -0.125q-0.046875 -1.421875 -0.8125 -2.3125q-0.765625 -0.890625 -2.015625 -0.890625zm10.575317 0.1875q-0.34375 -0.0625 -0.734375 -0.0625q-1.015625 0 -1.71875 0.5625q-0.703125 0.5625 -1.015625 1.65625l0 6.765625l-1.078125 0l0 -9.859375l1.0625 0l0.015625 1.5625q0.875 -1.734375 2.78125 -1.734375q0.453125 0 0.71875 0.109375l-0.03125 1.0zm7.6358643 6.421875q0 -0.8125 -0.65625 -1.296875q-0.65625 -0.5 -1.96875 -0.78125q-1.3125 -0.28125 -2.03125 -0.640625q-0.71875 -0.359375 -1.078125 -0.875q-0.34375 -0.515625 -0.34375 -1.25q0 -1.171875 0.96875 -1.921875q0.984375 -0.765625 2.5 -0.765625q1.65625 0 2.640625 0.8125q1.0 0.8125 1.0 2.125l-1.09375 0q0 -0.875 -0.71875 -1.4375q-0.71875 -0.578125 -1.828125 -0.578125q-1.078125 0 -1.734375 0.484375q-0.640625 0.46875 -0.640625 1.234375q0 0.734375 0.53125 1.140625q0.546875 0.40625 1.984375 0.75q1.4375 0.328125 2.140625 0.71875q0.71875 0.375 1.0625 0.921875q0.359375 0.53125 0.359375 1.296875q0 1.25 -1.015625 2.0q-1.0 0.75 -2.625 0.75q-1.71875 0 -2.796875 -0.828125q-1.0625 -0.84375 -1.0625 -2.125l1.09375 0q0.0625 0.96875 0.796875 1.5q0.75 0.53125 1.96875 0.53125q1.140625 0 1.84375 -0.5q0.703125 -0.5 0.703125 -1.265625z" fill-rule="nonzero"/><path fill="#d0e0e3" d="m276.4908 322.04987l352.6929 0l0 177.07086l-352.6929 0z" fill-rule="evenodd"/><path stroke="#78909c" stroke-width="1.0" stroke-linejoin="round" stroke-linecap="round" d="m276.4908 322.04987l352.6929 0l0 177.07086l-352.6929 0z" fill-rule="evenodd"/><path fill="#595959" d="m417.88412 349.1453l0 -11.375l3.1875 0q1.390625 0 2.5 0.640625q1.109375 0.625 1.734375 1.8125q0.625 1.1875 0.625 2.703125l0 1.046875q0 1.53125 -0.625 2.71875q-0.609375 1.171875 -1.734375 1.8125q-1.125 0.640625 -2.578125 0.640625l-3.109375 0zm0.96875 -10.5625l0 9.75l2.15625 0q1.796875 0 2.875 -1.1875q1.09375 -1.203125 1.09375 -3.234375l0 -1.0q0 -1.953125 -1.078125 -3.125q-1.0625 -1.1875 -2.8125 -1.203125l-2.234375 0zm14.6328125 10.5625q-0.140625 -0.40625 -0.1875 -1.1875q-0.484375 0.640625 -1.25 1.0q-0.765625 0.34375 -1.609375 0.34375q-1.21875 0 -1.984375 -0.671875q-0.75 -0.6875 -0.75 -1.734375q0 -1.234375 1.03125 -1.953125q1.03125 -0.71875 2.859375 -0.71875l1.703125 0l0 -0.953125q0 -0.90625 -0.5625 -1.421875q-0.5625 -0.53125 -1.625 -0.53125q-0.984375 0 -1.625 0.5q-0.640625 0.5 -0.640625 1.203125l-0.9375 0q0 -1.015625 0.9375 -1.75q0.9375 -0.734375 2.3125 -0.734375q1.40625 0 2.21875 0.703125q0.828125 0.703125 0.84375 1.96875l0 4.0q0 1.234375 0.265625 1.84375l0 0.09375l-1.0 0zm-2.9375 -0.671875q0.9375 0 1.671875 -0.453125q0.734375 -0.453125 1.078125 -1.21875l0 -1.859375l-1.671875 0q-1.40625 0.015625 -2.203125 0.515625q-0.78125 0.5 -0.78125 1.359375q0 0.71875 0.53125 1.1875q0.53125 0.46875 1.375 0.46875zm7.6171875 -9.953125l0 2.171875l1.75 0l0 0.765625l-1.75 0l0 5.625q0 0.703125 0.25 1.046875q0.265625 0.34375 0.859375 0.34375q0.234375 0 0.75 -0.078125l0.046875 0.78125q-0.375 0.125 -1.0 0.125q-0.96875 0 -1.40625 -0.5625q-0.4375 -0.5625 -0.4375 -1.640625l0 -5.640625l-1.546875 0l0 -0.765625l1.546875 0l0 -2.171875l0.9375 0zm9.03125 10.625q-0.140625 -0.40625 -0.1875 -1.1875q-0.484375 0.640625 -1.25 1.0q-0.765625 0.34375 -1.609375 0.34375q-1.21875 0 -1.984375 -0.671875q-0.75 -0.6875 -0.75 -1.734375q0 -1.234375 1.03125 -1.953125q1.03125 -0.71875 2.859375 -0.71875l1.703125 0l0 -0.953125q0 -0.90625 -0.5625 -1.421875q-0.5625 -0.53125 -1.625 -0.53125q-0.984375 0 -1.625 0.5q-0.640625 0.5 -0.640625 1.203125l-0.9375 0q0 -1.015625 0.9375 -1.75q0.9375 -0.734375 2.3125 -0.734375q1.40625 0 2.21875 0.703125q0.828125 0.703125 0.84375 1.96875l0 4.0q0 1.234375 0.265625 1.84375l0 0.09375l-1.0 0zm-2.9375 -0.671875q0.9375 0 1.671875 -0.453125q0.734375 -0.453125 1.078125 -1.21875l0 -1.859375l-1.671875 0q-1.40625 0.015625 -2.203125 0.515625q-0.78125 0.5 -0.78125 1.359375q0 0.71875 0.53125 1.1875q0.53125 0.46875 1.375 0.46875zm18.117188 -10.703125l0 7.765625q-0.015625 1.140625 -0.515625 2.0q-0.5 0.84375 -1.40625 1.3125q-0.90625 0.453125 -2.09375 0.453125q-1.796875 0 -2.875 -0.984375q-1.078125 -0.984375 -1.125 -2.71875l0 -7.828125l0.953125 0l0 7.6875q0 1.4375 0.8125 2.234375q0.828125 0.796875 2.234375 0.796875q1.40625 0 2.21875 -0.796875q0.828125 -0.796875 0.828125 -2.21875l0 -7.703125l0.96875 0zm3.34375 2.921875l0.03125 1.4375q0.484375 -0.78125 1.1875 -1.1875q0.71875 -0.40625 1.578125 -0.40625q1.359375 0 2.015625 0.765625q0.671875 0.765625 0.671875 2.296875l0 5.546875l-0.921875 0l0 -5.5625q-0.015625 -1.125 -0.484375 -1.671875q-0.46875 -0.5625 -1.515625 -0.5625q-0.859375 0 -1.53125 0.546875q-0.671875 0.53125 -0.984375 1.453125l0 5.796875l-0.9375 0l0 -8.453125l0.890625 0zm8.9453125 8.453125l-0.9375 0l0 -8.453125l0.9375 0l0 8.453125zm-1.09375 -10.90625q0 -0.265625 0.171875 -0.4375q0.171875 -0.1875 0.46875 -0.1875q0.296875 0 0.46875 0.1875q0.171875 0.171875 0.171875 0.4375q0 0.265625 -0.171875 0.453125q-0.171875 0.171875 -0.46875 0.171875q-0.296875 0 -0.46875 -0.171875q-0.171875 -0.1875 -0.171875 -0.453125zm5.0859375 0.28125l0 2.171875l1.75 0l0 0.765625l-1.75 0l0 5.625q0 0.703125 0.25 1.046875q0.265625 0.34375 0.859375 0.34375q0.234375 0 0.75 -0.078125l0.046875 0.78125q-0.375 0.125 -1.0 0.125q-0.96875 0 -1.40625 -0.5625q-0.4375 -0.5625 -0.4375 -1.640625l0 -5.640625l-1.546875 0l0 -0.765625l1.546875 0l0 -2.171875l0.9375 0zm8.75 8.46875q0 -0.6875 -0.5625 -1.109375q-0.546875 -0.421875 -1.671875 -0.65625q-1.125 -0.25 -1.75 -0.546875q-0.625 -0.3125 -0.921875 -0.75q-0.296875 -0.453125 -0.296875 -1.09375q0 -1.0 0.828125 -1.640625q0.84375 -0.65625 2.140625 -0.65625q1.421875 0 2.265625 0.703125q0.859375 0.6875 0.859375 1.8125l-0.9375 0q0 -0.734375 -0.625 -1.21875q-0.609375 -0.5 -1.5625 -0.5q-0.921875 0 -1.484375 0.40625q-0.546875 0.40625 -0.546875 1.0625q0 0.640625 0.453125 0.984375q0.46875 0.34375 1.703125 0.640625q1.234375 0.28125 1.84375 0.609375q0.609375 0.328125 0.90625 0.796875q0.296875 0.453125 0.296875 1.109375q0 1.078125 -0.859375 1.71875q-0.859375 0.640625 -2.25 0.640625q-1.484375 0 -2.40625 -0.71875q-0.90625 -0.71875 -0.90625 -1.8125l0.9375 0q0.046875 0.828125 0.6875 1.28125q0.640625 0.453125 1.6875 0.453125q0.96875 0 1.5625 -0.421875q0.609375 -0.4375 0.609375 -1.09375z" fill-rule="nonzero"/><path fill="#cfe2f3" d="m295.62463 364.55118l126.39371 0l0 118.519684l-126.39371 0z" fill-rule="evenodd"/><path stroke="#78909c" stroke-width="1.0" stroke-linejoin="round" stroke-linecap="round" d="m295.62463 364.55118l126.39371 0l0 118.519684l-126.39371 0z" fill-rule="evenodd"/><path fill="#595959" d="m325.6377 424.67352l-2.75 0l0 3.9375l-0.8125 0l0 -9.46875l3.078125 0q1.515625 0 2.375 0.734375q0.859375 0.734375 0.859375 2.046875q0 0.921875 -0.546875 1.625q-0.53125 0.6875 -1.421875 0.953125l2.359375 4.03125l0 0.078125l-0.84375 0l-2.296875 -3.9375zm-2.75 -0.6875l2.453125 0q1.015625 0 1.625 -0.5625q0.609375 -0.578125 0.609375 -1.5q0 -1.0 -0.640625 -1.546875q-0.640625 -0.5625 -1.78125 -0.5625l-2.265625 0l0 4.171875zm10.210236 4.75q-0.890625 0 -1.625 -0.4375q-0.71875 -0.4375 -1.125 -1.234375q-0.40625 -0.796875 -0.40625 -1.765625l0 -0.28125q0 -1.015625 0.390625 -1.828125q0.40625 -0.8125 1.109375 -1.28125q0.703125 -0.46875 1.515625 -0.46875q1.28125 0 2.03125 0.875q0.765625 0.875 0.765625 2.390625l0 0.4375l-5.03125 0l0 0.15625q0 1.1875 0.6875 1.984375q0.6875 0.796875 1.734375 0.796875q0.625 0 1.09375 -0.21875q0.484375 -0.234375 0.875 -0.734375l0.484375 0.375q-0.859375 1.234375 -2.5 1.234375zm-0.140625 -6.640625q-0.875 0 -1.484375 0.65625q-0.59375 0.640625 -0.71875 1.734375l4.21875 0l0 -0.09375q-0.03125 -1.015625 -0.578125 -1.65625q-0.546875 -0.640625 -1.4375 -0.640625zm8.52594 4.71875q0 -0.578125 -0.46875 -0.921875q-0.46875 -0.359375 -1.40625 -0.546875q-0.9375 -0.203125 -1.453125 -0.453125q-0.515625 -0.265625 -0.765625 -0.625q-0.25 -0.375 -0.25 -0.90625q0 -0.828125 0.6875 -1.375q0.703125 -0.546875 1.796875 -0.546875q1.171875 0 1.875 0.59375q0.71875 0.578125 0.71875 1.515625l-0.78125 0q0 -0.625 -0.515625 -1.03125q-0.515625 -0.421875 -1.296875 -0.421875q-0.765625 0 -1.234375 0.34375q-0.46875 0.34375 -0.46875 0.890625q0 0.53125 0.390625 0.828125q0.390625 0.28125 1.40625 0.53125q1.03125 0.234375 1.53125 0.515625q0.515625 0.265625 0.765625 0.65625q0.25 0.375 0.25 0.921875q0 0.890625 -0.71875 1.421875q-0.71875 0.53125 -1.875 0.53125q-1.234375 0 -2.0 -0.59375q-0.765625 -0.59375 -0.765625 -1.5l0.78125 0q0.046875 0.6875 0.578125 1.0625q0.53125 0.375 1.40625 0.375q0.8125 0 1.3125 -0.359375q0.5 -0.359375 0.5 -0.90625zm5.2486877 1.921875q-0.890625 0 -1.625 -0.4375q-0.71875 -0.4375 -1.125 -1.234375q-0.40625 -0.796875 -0.40625 -1.765625l0 -0.28125q0 -1.015625 0.390625 -1.828125q0.40625 -0.8125 1.109375 -1.28125q0.703125 -0.46875 1.515625 -0.46875q1.28125 0 2.03125 0.875q0.765625 0.875 0.765625 2.390625l0 0.4375l-5.03125 0l0 0.15625q0 1.1875 0.6875 1.984375q0.6875 0.796875 1.734375 0.796875q0.625 0 1.09375 -0.21875q0.484375 -0.234375 0.875 -0.734375l0.484375 0.375q-0.859375 1.234375 -2.5 1.234375zm-0.140625 -6.640625q-0.875 0 -1.484375 0.65625q-0.59375 0.640625 -0.71875 1.734375l4.21875 0l0 -0.09375q-0.03125 -1.015625 -0.578125 -1.65625q-0.546875 -0.640625 -1.4375 -0.640625zm7.55719 0.140625q-0.25 -0.046875 -0.53125 -0.046875q-0.71875 0 -1.234375 0.40625q-0.5 0.40625 -0.703125 1.1875l0 4.828125l-0.78125 0l0 -7.046875l0.765625 0l0.015625 1.125q0.609375 -1.25 1.984375 -1.25q0.3125 0 0.5 0.078125l-0.015625 0.71875zm3.5386353 5.296875l2.140625 -5.96875l0.8125 0l-2.640625 7.046875l-0.625 0l-2.640625 -7.046875l0.796875 0l2.15625 5.96875zm8.562592 1.078125q-0.109375 -0.328125 -0.140625 -0.984375q-0.40625 0.53125 -1.046875 0.828125q-0.640625 0.28125 -1.34375 0.28125q-1.015625 0 -1.640625 -0.5625q-0.625 -0.5625 -0.625 -1.4375q0 -1.015625 0.84375 -1.609375q0.859375 -0.609375 2.390625 -0.609375l1.40625 0l0 -0.796875q0 -0.765625 -0.46875 -1.1875q-0.453125 -0.4375 -1.34375 -0.4375q-0.8125 0 -1.359375 0.421875q-0.53125 0.40625 -0.53125 1.0l-0.78125 -0.015625q0 -0.828125 0.78125 -1.4375q0.78125 -0.625 1.921875 -0.625q1.1875 0 1.859375 0.59375q0.6875 0.578125 0.703125 1.640625l0 3.328125q0 1.03125 0.21875 1.53125l0 0.078125l-0.84375 0zm-2.4375 -0.5625q0.78125 0 1.390625 -0.375q0.625 -0.375 0.890625 -1.015625l0 -1.546875l-1.390625 0q-1.15625 0.015625 -1.8125 0.4375q-0.65625 0.40625 -0.65625 1.125q0 0.59375 0.4375 0.984375q0.4375 0.390625 1.140625 0.390625zm6.342285 -8.28125l0 1.796875l1.46875 0l0 0.640625l-1.46875 0l0 4.6875q0 0.59375 0.21875 0.890625q0.21875 0.28125 0.703125 0.28125q0.203125 0 0.640625 -0.078125l0.03125 0.640625q-0.3125 0.109375 -0.84375 0.109375q-0.796875 0 -1.171875 -0.453125q-0.359375 -0.46875 -0.359375 -1.375l0 -4.703125l-1.28125 0l0 -0.640625l1.28125 0l0 -1.796875l0.78125 0zm3.9540405 8.84375l-0.78125 0l0 -7.046875l0.78125 0l0 7.046875zm-0.921875 -9.078125q0 -0.21875 0.140625 -0.375q0.140625 -0.15625 0.390625 -0.15625q0.25 0 0.390625 0.15625q0.15625 0.15625 0.15625 0.375q0 0.21875 -0.15625 0.375q-0.140625 0.140625 -0.390625 0.140625q-0.25 0 -0.390625 -0.140625q-0.140625 -0.15625 -0.140625 -0.375zm2.5964966 5.453125q0 -1.015625 0.390625 -1.828125q0.40625 -0.8125 1.125 -1.265625q0.71875 -0.453125 1.625 -0.453125q1.40625 0 2.28125 0.984375q0.875 0.984375 0.875 2.609375l0 0.171875q0 1.015625 -0.40625 1.84375q-0.390625 0.8125 -1.109375 1.25q-0.703125 0.4375 -1.625 0.4375q-1.390625 0 -2.28125 -0.984375q-0.875 -0.984375 -0.875 -2.609375l0 -0.15625zm0.78125 0.21875q0 1.265625 0.65625 2.078125q0.65625 0.796875 1.71875 0.796875q1.0625 0 1.703125 -0.796875q0.65625 -0.8125 0.65625 -2.140625l0 -0.15625q0 -0.8125 -0.296875 -1.46875q-0.296875 -0.671875 -0.84375 -1.046875q-0.53125 -0.375 -1.234375 -0.375q-1.03125 0 -1.703125 0.828125q-0.65625 0.8125 -0.65625 2.140625l0 0.140625zm7.8551636 -3.640625l0.03125 1.203125q0.40625 -0.640625 0.984375 -0.984375q0.59375 -0.34375 1.3125 -0.34375q1.140625 0 1.6875 0.640625q0.546875 0.640625 0.5625 1.90625l0 4.625l-0.78125 0l0 -4.625q0 -0.953125 -0.40625 -1.40625q-0.390625 -0.46875 -1.25 -0.46875q-0.71875 0 -1.28125 0.453125q-0.546875 0.453125 -0.8125 1.21875l0 4.828125l-0.78125 0l0 -7.046875l0.734375 0zm10.805756 5.25q0 -0.578125 -0.46875 -0.921875q-0.46875 -0.359375 -1.40625 -0.546875q-0.9375 -0.203125 -1.453125 -0.453125q-0.515625 -0.265625 -0.765625 -0.625q-0.25 -0.375 -0.25 -0.90625q0 -0.828125 0.6875 -1.375q0.703125 -0.546875 1.796875 -0.546875q1.171875 0 1.875 0.59375q0.71875 0.578125 0.71875 1.515625l-0.78125 0q0 -0.625 -0.515625 -1.03125q-0.515625 -0.421875 -1.296875 -0.421875q-0.765625 0 -1.234375 0.34375q-0.46875 0.34375 -0.46875 0.890625q0 0.53125 0.390625 0.828125q0.390625 0.28125 1.40625 0.53125q1.03125 0.234375 1.53125 0.515625q0.515625 0.265625 0.765625 0.65625q0.25 0.375 0.25 0.921875q0 0.890625 -0.71875 1.421875q-0.71875 0.53125 -1.875 0.53125q-1.234375 0 -2.0 -0.59375q-0.765625 -0.59375 -0.765625 -1.5l0.78125 0q0.046875 0.6875 0.578125 1.0625q0.53125 0.375 1.40625 0.375q0.8125 0 1.3125 -0.359375q0.5 -0.359375 0.5 -0.90625z" fill-rule="nonzero"/><path fill="#d9d2e9" d="m84.049866 204.6588l162.3937 0l0 47.936996l-162.3937 0z" fill-rule="evenodd"/><path stroke="#78909c" stroke-width="1.0" stroke-linejoin="round" stroke-linecap="round" d="m84.049866 204.6588l162.3937 0l0 47.936996l-162.3937 0z" fill-rule="evenodd"/><path fill="#595959" d="m154.20341 231.83604q0 -1.015625 -0.71875 -1.609375q-0.71875 -0.609375 -2.640625 -1.140625q-1.90625 -0.546875 -2.78125 -1.171875q-1.25 -0.90625 -1.25 -2.359375q0 -1.40625 1.15625 -2.28125q1.15625 -0.890625 2.96875 -0.890625q1.234375 0 2.203125 0.46875q0.96875 0.46875 1.5 1.328125q0.53125 0.84375 0.53125 1.875l-1.046875 0q0 -1.25 -0.875 -2.015625q-0.859375 -0.765625 -2.3125 -0.765625q-1.40625 0 -2.25 0.625q-0.828125 0.625 -0.828125 1.640625q0 0.9375 0.75 1.53125q0.75 0.59375 2.40625 1.046875q1.65625 0.453125 2.515625 0.9375q0.859375 0.484375 1.28125 1.171875q0.4375 0.671875 0.4375 1.59375q0 1.453125 -1.171875 2.34375q-1.15625 0.875 -3.0625 0.875q-1.296875 0 -2.390625 -0.46875q-1.078125 -0.46875 -1.640625 -1.296875q-0.5625 -0.84375 -0.5625 -1.921875l1.03125 0q0 1.296875 0.96875 2.0625q0.984375 0.75 2.59375 0.75q1.4375 0 2.3125 -0.640625q0.875 -0.640625 0.875 -1.6875zm4.341324 2.15625l6.078125 0l0 0.875l-7.125 0l0 -12.3125l1.046875 0l0 11.4375zm14.883987 -2.578125l-5.59375 0l-1.265625 3.453125l-1.09375 0l4.671875 -12.3125l0.984375 0l4.65625 12.3125l-1.078125 0l-1.28125 -3.453125zm-5.265625 -0.890625l4.9375 0l-2.46875 -6.703125l-2.46875 6.703125zm14.681 2.015625q0 -0.75 -0.609375 -1.203125q-0.59375 -0.46875 -1.8125 -0.71875q-1.21875 -0.265625 -1.890625 -0.59375q-0.671875 -0.328125 -1.0 -0.8125q-0.328125 -0.484375 -0.328125 -1.171875q0 -1.078125 0.90625 -1.78125q0.90625 -0.71875 2.3125 -0.71875q1.546875 0 2.46875 0.765625q0.921875 0.75 0.921875 1.96875l-1.015625 0q0 -0.796875 -0.671875 -1.328125q-0.671875 -0.546875 -1.703125 -0.546875q-0.984375 0 -1.59375 0.453125q-0.609375 0.4375 -0.609375 1.15625q0 0.6875 0.5 1.0625q0.515625 0.375 1.84375 0.6875q1.328125 0.3125 1.984375 0.671875q0.671875 0.34375 0.984375 0.84375q0.328125 0.5 0.328125 1.21875q0 1.15625 -0.9375 1.859375q-0.921875 0.6875 -2.4375 0.6875q-1.59375 0 -2.59375 -0.765625q-0.984375 -0.78125 -0.984375 -1.96875l1.015625 0q0.046875 0.890625 0.734375 1.390625q0.703125 0.484375 1.828125 0.484375q1.0625 0 1.703125 -0.453125q0.65625 -0.46875 0.65625 -1.1875z" fill-rule="nonzero"/><path fill="#d9d2e9" d="m275.41995 251.99213l162.3937 0l0 47.93701l-162.3937 0z" fill-rule="evenodd"/><path stroke="#78909c" stroke-width="1.0" stroke-linejoin="round" stroke-linecap="round" d="m275.41995 251.99213l162.3937 0l0 47.93701l-162.3937 0z" fill-rule="evenodd"/><path fill="#595959" d="m351.39435 276.71625q0 1.75 -0.625 3.0625q-0.609375 1.3125 -1.765625 1.96875l2.234375 1.953125l-0.71875 0.65625l-2.5 -2.1875q-0.703125 0.203125 -1.421875 0.203125q-1.40625 0 -2.5 -0.6875q-1.09375 -0.703125 -1.703125 -1.96875q-0.59375 -1.28125 -0.59375 -2.953125l0 -1.375q0 -1.6875 0.59375 -2.984375q0.59375 -1.296875 1.6875 -1.984375q1.09375 -0.703125 2.5 -0.703125q1.4375 0 2.53125 0.703125q1.09375 0.6875 1.6875 1.984375q0.59375 1.28125 0.59375 2.984375l0 1.328125zm-1.03125 -1.34375q0 -2.21875 -1.015625 -3.484375q-1.0 -1.265625 -2.765625 -1.265625q-1.703125 0 -2.734375 1.265625q-1.015625 1.265625 -1.015625 3.53125l0 1.296875q0 2.1875 1.015625 3.46875q1.015625 1.28125 2.75 1.28125q1.765625 0 2.765625 -1.25q1.0 -1.265625 1.0 -3.53125l0 -1.3125zm2.8988037 2.109375q0 -1.3125 0.5 -2.359375q0.515625 -1.0625 1.453125 -1.65625q0.9375 -0.59375 2.125 -0.59375q1.828125 0 2.953125 1.28125q1.140625 1.28125 1.140625 3.40625l0 0.203125q0 1.328125 -0.515625 2.390625q-0.515625 1.0625 -1.453125 1.640625q-0.921875 0.578125 -2.109375 0.578125q-1.828125 0 -2.96875 -1.28125q-1.125 -1.28125 -1.125 -3.40625l0 -0.203125zm1.015625 0.28125q0 1.640625 0.84375 2.703125q0.859375 1.046875 2.234375 1.046875q1.375 0 2.21875 -1.046875q0.84375 -1.0625 0.84375 -2.78125l0 -0.203125q0 -1.046875 -0.390625 -1.90625q-0.375 -0.875 -1.078125 -1.359375q-0.703125 -0.484375 -1.609375 -0.484375q-1.359375 0 -2.21875 1.0625q-0.84375 1.0625 -0.84375 2.78125l0 0.1875zm16.454773 1.40625q0 -1.015625 -0.71875 -1.609375q-0.71875 -0.609375 -2.640625 -1.140625q-1.90625 -0.546875 -2.78125 -1.171875q-1.25 -0.90625 -1.25 -2.359375q0 -1.40625 1.15625 -2.28125q1.15625 -0.890625 2.96875 -0.890625q1.234375 0 2.203125 0.46875q0.96875 0.46875 1.5 1.328125q0.53125 0.84375 0.53125 1.875l-1.046875 0q0 -1.25 -0.875 -2.015625q-0.859375 -0.765625 -2.3125 -0.765625q-1.40625 0 -2.25 0.625q-0.828125 0.625 -0.828125 1.640625q0 0.9375 0.75 1.53125q0.75 0.59375 2.40625 1.046875q1.65625 0.453125 2.515625 0.9375q0.859375 0.484375 1.28125 1.171875q0.4375 0.671875 0.4375 1.59375q0 1.453125 -1.171875 2.34375q-1.15625 0.875 -3.0625 0.875q-1.296875 0 -2.390625 -0.46875q-1.078125 -0.46875 -1.640625 -1.296875q-0.5625 -0.84375 -0.5625 -1.921875l1.03125 0q0 1.296875 0.96875 2.0625q0.984375 0.75 2.59375 0.75q1.4375 0 2.3125 -0.640625q0.875 -0.640625 0.875 -1.6875z" fill-rule="nonzero"/><path fill="#f4cccc" d="m275.41995 120.47244l353.76376 0l0 83.55905l-353.76376 0z" fill-rule="evenodd"/><path stroke="#78909c" stroke-width="1.0" stroke-linejoin="round" stroke-linecap="round" d="m275.41995 120.47244l353.76376 0l0 83.55905l-353.76376 0z" fill-rule="evenodd"/><path fill="#595959" d="m418.36435 129.7276l-3.484375 0l0 9.484375l-2.34375 0l0 -9.484375l-3.4375 0l0 -1.8906326l9.265625 0l0 1.8906326zm-0.7890625 5.171875q0 -1.25 0.484375 -2.234375q0.484375 -0.984375 1.390625 -1.515625q0.921875 -0.546875 2.125 -0.546875q1.703125 0 2.78125 1.046875q1.09375 1.046875 1.21875 2.84375l0.015625 0.578125q0 1.9375 -1.09375 3.125q-1.078125 1.171875 -2.90625 1.171875q-1.828125 0 -2.921875 -1.171875q-1.09375 -1.171875 -1.09375 -3.1875l0 -0.109375zm2.265625 0.171875q0 1.203125 0.453125 1.84375q0.453125 0.625 1.296875 0.625q0.8125 0 1.265625 -0.625q0.46875 -0.625 0.46875 -2.015625q0 -1.171875 -0.46875 -1.8125q-0.453125 -0.65625 -1.28125 -0.65625q-0.828125 0 -1.28125 0.640625q-0.453125 0.640625 -0.453125 2.0zm10.203125 0.75l-0.8125 0.8125l0 2.578125l-2.25 0l0 -12.000008l2.25 0l0 6.6406326l0.4375 -0.5625l2.171875 -2.53125l2.703125 0l-3.046875 3.515625l3.3125 4.9375l-2.59375 0l-2.171875 -3.390625zm9.21875 3.546875q-1.859375 0 -3.03125 -1.140625q-1.171875 -1.140625 -1.171875 -3.046875l0 -0.21875q0 -1.265625 0.484375 -2.265625q0.5 -1.015625 1.40625 -1.546875q0.90625 -0.546875 2.0625 -0.546875q1.734375 0 2.71875 1.09375q1.0 1.09375 1.0 3.09375l0 0.921875l-5.375 0q0.109375 0.828125 0.65625 1.328125q0.546875 0.5 1.390625 0.5q1.3125 0 2.046875 -0.9375l1.109375 1.234375q-0.515625 0.71875 -1.390625 1.125q-0.859375 0.40625 -1.90625 0.40625zm-0.265625 -6.9375q-0.671875 0 -1.09375 0.453125q-0.40625 0.453125 -0.53125 1.296875l3.140625 0l0 -0.1875q-0.015625 -0.75 -0.40625 -1.15625q-0.390625 -0.40625 -1.109375 -0.40625zm7.1015625 -1.671875l0.0625 0.96875q0.90625 -1.125 2.4375 -1.125q1.34375 0 2.0 0.796875q0.65625 0.78125 0.671875 2.34375l0 5.46875l-2.265625 0l0 -5.40625q0 -0.71875 -0.3125 -1.046875q-0.3125 -0.328125 -1.03125 -0.328125q-0.953125 0 -1.4375 0.8125l0 5.96875l-2.25 0l0 -8.453125l2.125 0zm6.5234375 4.140625q0 -1.25 0.484375 -2.234375q0.484375 -0.984375 1.390625 -1.515625q0.921875 -0.546875 2.125 -0.546875q1.703125 0 2.78125 1.046875q1.09375 1.046875 1.21875 2.84375l0.015625 0.578125q0 1.9375 -1.09375 3.125q-1.078125 1.171875 -2.90625 1.171875q-1.828125 0 -2.921875 -1.171875q-1.09375 -1.171875 -1.09375 -3.1875l0 -0.109375zm2.265625 0.171875q0 1.203125 0.453125 1.84375q0.453125 0.625 1.296875 0.625q0.8125 0 1.265625 -0.625q0.46875 -0.625 0.46875 -2.015625q0 -1.171875 -0.46875 -1.8125q-0.453125 -0.65625 -1.28125 -0.65625q-0.828125 0 -1.28125 0.640625q-0.453125 0.640625 -0.453125 2.0zm9.25 -4.3125l0.078125 0.9375q0.890625 -1.09375 2.421875 -1.09375q1.640625 0 2.25 1.28125q0.890625 -1.28125 2.53125 -1.28125q1.375 0 2.046875 0.796875q0.671875 0.796875 0.671875 2.40625l0 5.40625l-2.265625 0l0 -5.390625q0 -0.71875 -0.28125 -1.046875q-0.28125 -0.34375 -0.984375 -0.34375q-1.015625 0 -1.40625 0.96875l0 5.8125l-2.25 0l0 -5.390625q0 -0.734375 -0.296875 -1.0625q-0.28125 -0.328125 -0.984375 -0.328125q-0.953125 0 -1.390625 0.796875l0 5.984375l-2.25 0l0 -8.453125l2.109375 0zm14.1171875 8.453125l-2.265625 0l0 -8.453125l2.265625 0l0 8.453125zm-2.390625 -10.640625q0 -0.515625 0.328125 -0.8437576q0.34375 -0.328125 0.9375 -0.328125q0.578125 0 0.921875 0.328125q0.34375 0.32813263 0.34375 0.8437576q0 0.515625 -0.359375 0.84375q-0.34375 0.328125 -0.921875 0.328125q-0.5625 0 -0.90625 -0.328125q-0.34375 -0.328125 -0.34375 -0.84375zm7.7734375 8.96875q0.625 0 1.015625 -0.34375q0.390625 -0.34375 0.40625 -0.90625l2.109375 0q0 0.859375 -0.46875 1.578125q-0.453125 0.703125 -1.265625 1.109375q-0.796875 0.390625 -1.765625 0.390625q-1.8125 0 -2.859375 -1.15625q-1.046875 -1.15625 -1.046875 -3.1875l0 -0.140625q0 -1.953125 1.03125 -3.109375q1.046875 -1.171875 2.859375 -1.171875q1.59375 0 2.546875 0.90625q0.953125 0.890625 0.96875 2.390625l-2.109375 0q-0.015625 -0.65625 -0.40625 -1.0625q-0.390625 -0.40625 -1.03125 -0.40625q-0.796875 0 -1.203125 0.578125q-0.390625 0.5625 -0.390625 1.859375l0 0.234375q0 1.296875 0.390625 1.875q0.40625 0.5625 1.21875 0.5625zm9.40625 -0.671875q0 -0.40625 -0.421875 -0.640625q-0.40625 -0.25 -1.3125 -0.4375q-3.015625 -0.625 -3.015625 -2.5625q0 -1.125 0.9375 -1.875q0.9375 -0.75 2.4375 -0.75q1.609375 0 2.578125 0.765625q0.96875 0.75 0.96875 1.953125l-2.265625 0q0 -0.484375 -0.3125 -0.796875q-0.3125 -0.3125 -0.96875 -0.3125q-0.578125 0 -0.890625 0.265625q-0.3125 0.25 -0.3125 0.640625q0 0.375 0.359375 0.609375q0.359375 0.234375 1.203125 0.40625q0.84375 0.15625 1.421875 0.375q1.78125 0.65625 1.78125 2.265625q0 1.15625 -1.0 1.875q-0.984375 0.71875 -2.546875 0.71875q-1.0625 0 -1.890625 -0.375q-0.828125 -0.390625 -1.296875 -1.046875q-0.46875 -0.65625 -0.46875 -1.421875l2.140625 0q0.03125 0.59375 0.4375 0.921875q0.421875 0.3125 1.125 0.3125q0.640625 0 0.96875 -0.234375q0.34375 -0.25 0.34375 -0.65625z" fill-rule="nonzero"/><path fill="#d9d2e9" d="m656.9344 204.65749l162.39368 0l0 47.936996l-162.39368 0z" fill-rule="evenodd"/><path stroke="#78909c" stroke-width="1.0" stroke-linejoin="round" stroke-linecap="round" d="m656.9344 204.65749l162.39368 0l0 47.936996l-162.39368 0z" fill-rule="evenodd"/><path fill="#595959" d="m717.7935 231.83473q0 -1.015625 -0.71875 -1.609375q-0.71875 -0.609375 -2.640625 -1.140625q-1.90625 -0.546875 -2.78125 -1.171875q-1.25 -0.90625 -1.25 -2.359375q0 -1.40625 1.15625 -2.28125q1.15625 -0.890625 2.96875 -0.890625q1.234375 0 2.203125 0.46875q0.96875 0.46875 1.5 1.328125q0.53125 0.84375 0.53125 1.875l-1.046875 0q0 -1.25 -0.875 -2.015625q-0.859375 -0.765625 -2.3125 -0.765625q-1.40625 0 -2.25 0.625q-0.828125 0.625 -0.828125 1.640625q0 0.9375 0.75 1.53125q0.75 0.59375 2.40625 1.046875q1.65625 0.453125 2.515625 0.9375q0.859375 0.484375 1.28125 1.171875q0.4375 0.671875 0.4375 1.59375q0 1.453125 -1.171875 2.34375q-1.15625 0.875 -3.0625 0.875q-1.296875 0 -2.390625 -0.46875q-1.078125 -0.46875 -1.640625 -1.296875q-0.5625 -0.84375 -0.5625 -1.921875l1.03125 0q0 1.296875 0.96875 2.0625q0.984375 0.75 2.59375 0.75q1.4375 0 2.3125 -0.640625q0.875 -0.640625 0.875 -1.6875zm6.4351196 2.34375q1.0625 0 1.765625 -0.59375q0.71875 -0.59375 0.78125 -1.546875l0.96875 0q-0.03125 0.84375 -0.515625 1.53125q-0.484375 0.6875 -1.28125 1.078125q-0.796875 0.390625 -1.71875 0.390625q-1.796875 0 -2.859375 -1.25q-1.046875 -1.25 -1.046875 -3.375l0 -0.296875q0 -1.359375 0.46875 -2.390625q0.484375 -1.046875 1.359375 -1.609375q0.890625 -0.578125 2.078125 -0.578125q1.5 0 2.46875 0.90625q0.984375 0.890625 1.046875 2.359375l-0.96875 0q-0.0625 -1.078125 -0.78125 -1.734375q-0.703125 -0.671875 -1.765625 -0.671875q-1.375 0 -2.140625 1.0q-0.75 0.984375 -0.75 2.765625l0 0.296875q0 1.765625 0.75 2.75q0.765625 0.96875 2.140625 0.96875zm4.9888306 -4.03125q0 -1.3125 0.5 -2.359375q0.515625 -1.0625 1.453125 -1.65625q0.9375 -0.59375 2.125 -0.59375q1.828125 0 2.953125 1.28125q1.140625 1.28125 1.140625 3.40625l0 0.203125q0 1.328125 -0.515625 2.390625q-0.515625 1.0625 -1.453125 1.640625q-0.921875 0.578125 -2.109375 0.578125q-1.828125 0 -2.96875 -1.28125q-1.125 -1.28125 -1.125 -3.40625l0 -0.203125zm1.015625 0.28125q0 1.640625 0.84375 2.703125q0.859375 1.046875 2.234375 1.046875q1.375 0 2.21875 -1.046875q0.84375 -1.0625 0.84375 -2.78125l0 -0.203125q0 -1.046875 -0.390625 -1.90625q-0.375 -0.875 -1.078125 -1.359375q-0.703125 -0.484375 -1.609375 -0.484375q-1.359375 0 -2.21875 1.0625q-0.84375 1.0625 -0.84375 2.78125l0 0.1875zm13.470398 -3.859375q-0.3125 -0.046875 -0.6875 -0.046875q-0.9375 0 -1.59375 0.53125q-0.65625 0.515625 -0.9375 1.53125l0 6.28125l-1.015625 0l0 -9.15625l1.0 0l0.015625 1.453125q0.796875 -1.625 2.578125 -1.625q0.421875 0 0.671875 0.109375l-0.03125 0.921875zm2.7359009 8.296875l-1.015625 0l0 -9.15625l1.015625 0l0 9.15625zm-1.1875 -11.796875q0 -0.296875 0.1875 -0.484375q0.1875 -0.203125 0.5 -0.203125q0.328125 0 0.515625 0.203125q0.1875 0.1875 0.1875 0.484375q0 0.28125 -0.1875 0.484375q-0.1875 0.1875 -0.515625 0.1875q-0.3125 0 -0.5 -0.1875q-0.1875 -0.203125 -0.1875 -0.484375zm4.899231 2.640625l0.03125 1.5625q0.515625 -0.84375 1.28125 -1.28125q0.78125 -0.453125 1.71875 -0.453125q1.46875 0 2.1875 0.828125q0.71875 0.828125 0.71875 2.5l0 6.0l-1.0 0l0 -6.015625q-0.015625 -1.234375 -0.53125 -1.828125q-0.5 -0.59375 -1.625 -0.59375q-0.9375 0 -1.671875 0.59375q-0.71875 0.578125 -1.0625 1.578125l0 6.265625l-1.015625 0l0 -9.15625l0.96875 0zm8.143616 4.5q0 -2.15625 0.953125 -3.40625q0.953125 -1.265625 2.59375 -1.265625q1.875 0 2.84375 1.5l0.046875 -1.328125l0.953125 0l0 8.96875q0 1.765625 -1.0 2.796875q-0.984375 1.03125 -2.671875 1.03125q-0.96875 0 -1.84375 -0.421875q-0.859375 -0.421875 -1.34375 -1.140625l0.5625 -0.609375q1.078125 1.328125 2.546875 1.328125q1.28125 0 1.984375 -0.75q0.71875 -0.75 0.734375 -2.078125l0 -1.15625q-0.96875 1.359375 -2.828125 1.359375q-1.59375 0 -2.5625 -1.265625q-0.96875 -1.28125 -0.96875 -3.4375l0 -0.125zm1.03125 0.171875q0 1.75 0.703125 2.765625q0.703125 1.015625 1.984375 1.015625q1.859375 0 2.640625 -1.6875l0 -4.25q-0.359375 -0.875 -1.03125 -1.328125q-0.65625 -0.46875 -1.59375 -0.46875q-1.28125 0 -2.0 1.0q-0.703125 1.0 -0.703125 2.953125z" fill-rule="nonzero"/><path fill="#d9d2e9" d="m465.68765 251.99213l162.3937 0l0 47.93701l-162.3937 0z" fill-rule="evenodd"/><path stroke="#78909c" stroke-width="1.0" stroke-linejoin="round" stroke-linecap="round" d="m465.68765 251.99213l162.3937 0l0 47.93701l-162.3937 0z" fill-rule="evenodd"/><path fill="#595959" d="m535.68896 279.16937q0 -1.015625 -0.71875 -1.609375q-0.71875 -0.609375 -2.640625 -1.140625q-1.90625 -0.546875 -2.78125 -1.171875q-1.25 -0.90625 -1.25 -2.359375q0 -1.40625 1.15625 -2.28125q1.15625 -0.890625 2.96875 -0.890625q1.234375 0 2.203125 0.46875q0.96875 0.46875 1.5 1.328125q0.53125 0.84375 0.53125 1.875l-1.046875 0q0 -1.25 -0.875 -2.015625q-0.859375 -0.765625 -2.3125 -0.765625q-1.40625 0 -2.25 0.625q-0.828125 0.625 -0.828125 1.640625q0 0.9375 0.75 1.53125q0.75 0.59375 2.40625 1.046875q1.65625 0.453125 2.515625 0.9375q0.859375 0.484375 1.28125 1.171875q0.4375 0.671875 0.4375 1.59375q0 1.453125 -1.171875 2.34375q-1.15625 0.875 -3.0625 0.875q-1.296875 0 -2.390625 -0.46875q-1.078125 -0.46875 -1.640625 -1.296875q-0.5625 -0.84375 -0.5625 -1.921875l1.03125 0q0 1.296875 0.96875 2.0625q0.984375 0.75 2.59375 0.75q1.4375 0 2.3125 -0.640625q0.875 -0.640625 0.875 -1.6875zm4.6225586 -8.46875l0 2.34375l1.890625 0l0 0.828125l-1.890625 0l0 6.109375q0 0.75 0.265625 1.125q0.28125 0.375 0.9375 0.375q0.25 0 0.8125 -0.078125l0.046875 0.828125q-0.40625 0.140625 -1.09375 0.140625q-1.03125 0 -1.515625 -0.609375q-0.46875 -0.609375 -0.46875 -1.78125l0 -6.109375l-1.6875 0l0 -0.828125l1.6875 0l0 -2.34375l1.015625 0zm9.770447 11.5q-0.140625 -0.4375 -0.1875 -1.28125q-0.53125 0.703125 -1.359375 1.078125q-0.828125 0.375 -1.75 0.375q-1.3125 0 -2.140625 -0.734375q-0.8125 -0.734375 -0.8125 -1.859375q0 -1.34375 1.109375 -2.125q1.125 -0.78125 3.109375 -0.78125l1.828125 0l0 -1.03125q0 -0.984375 -0.609375 -1.546875q-0.59375 -0.5625 -1.75 -0.5625q-1.0625 0 -1.765625 0.546875q-0.6875 0.53125 -0.6875 1.296875l-1.015625 -0.015625q0 -1.078125 1.015625 -1.875q1.015625 -0.8125 2.5 -0.8125q1.53125 0 2.40625 0.765625q0.890625 0.765625 0.921875 2.140625l0 4.328125q0 1.328125 0.28125 2.0l0 0.09375l-1.09375 0zm-3.171875 -0.734375q1.015625 0 1.8125 -0.484375q0.796875 -0.484375 1.15625 -1.3125l0 -2.015625l-1.8125 0q-1.5 0.015625 -2.359375 0.5625q-0.859375 0.53125 -0.859375 1.46875q0 0.765625 0.5625 1.28125q0.578125 0.5 1.5 0.5zm8.250488 -10.765625l0 2.34375l1.890625 0l0 0.828125l-1.890625 0l0 6.109375q0 0.75 0.265625 1.125q0.28125 0.375 0.9375 0.375q0.25 0 0.8125 -0.078125l0.046875 0.828125q-0.40625 0.140625 -1.09375 0.140625q-1.03125 0 -1.515625 -0.609375q-0.46875 -0.609375 -0.46875 -1.78125l0 -6.109375l-1.6875 0l0 -0.828125l1.6875 0l0 -2.34375l1.015625 0zm9.473572 9.171875q0 -0.75 -0.609375 -1.203125q-0.59375 -0.46875 -1.8125 -0.71875q-1.21875 -0.265625 -1.890625 -0.59375q-0.671875 -0.328125 -1.0 -0.8125q-0.328125 -0.484375 -0.328125 -1.171875q0 -1.078125 0.90625 -1.78125q0.90625 -0.71875 2.3125 -0.71875q1.546875 0 2.46875 0.765625q0.921875 0.75 0.921875 1.96875l-1.015625 0q0 -0.796875 -0.671875 -1.328125q-0.671875 -0.546875 -1.703125 -0.546875q-0.984375 0 -1.59375 0.453125q-0.609375 0.4375 -0.609375 1.15625q0 0.6875 0.5 1.0625q0.515625 0.375 1.84375 0.6875q1.328125 0.3125 1.984375 0.671875q0.671875 0.34375 0.984375 0.84375q0.328125 0.5 0.328125 1.21875q0 1.15625 -0.9375 1.859375q-0.921875 0.6875 -2.4375 0.6875q-1.59375 0 -2.59375 -0.765625q-0.984375 -0.78125 -0.984375 -1.96875l1.015625 0q0.046875 0.890625 0.734375 1.390625q0.703125 0.484375 1.828125 0.484375q1.0625 0 1.703125 -0.453125q0.65625 -0.46875 0.65625 -1.1875z" fill-rule="nonzero"/><path fill="#eeeeee" d="m454.81366 368.70874l0 0c0 -2.2961426 1.8613892 -4.1575623 4.1575623 -4.1575623l128.2203 0c1.1026611 0 2.1601562 0.4380188 2.9398193 1.2177124c0.7797241 0.7796936 1.2177124 1.8371887 1.2177124 2.9398499l0 16.62976c0 2.2961426 -1.8613892 4.1575623 -4.1575317 4.1575623l-128.2203 0c-2.296173 0 -4.1575623 -1.8614197 -4.1575623 -4.1575623z" fill-rule="evenodd"/><path stroke="#595959" stroke-width="1.0" stroke-linejoin="round" stroke-linecap="butt" d="m454.81366 368.70874l0 0c0 -2.2961426 1.8613892 -4.1575623 4.1575623 -4.1575623l128.2203 0c1.1026611 0 2.1601562 0.4380188 2.9398193 1.2177124c0.7797241 0.7796936 1.2177124 1.8371887 1.2177124 2.9398499l0 16.62976c0 2.2961426 -1.8613892 4.1575623 -4.1575317 4.1575623l-128.2203 0c-2.296173 0 -4.1575623 -1.8614197 -4.1575623 -4.1575623z" fill-rule="evenodd"/><path fill="#000000" d="m498.97342 377.65048l-3.609375 0l0 4.453125l-0.390625 0l0 -10.421875l3.328125 0q1.5625 0 2.484375 0.8125q0.9375 0.8125 0.9375 2.203125q0 1.0625 -0.671875 1.859375q-0.65625 0.796875 -1.671875 0.984375l2.78125 4.46875l0 0.09375l-0.40625 0l-2.78125 -4.453125zm-3.609375 -0.390625l3.28125 0q1.203125 0 1.9375 -0.734375q0.75 -0.734375 0.75 -1.828125q0 -1.21875 -0.828125 -1.921875q-0.8125 -0.703125 -2.234375 -0.703125l-2.90625 0l0 5.1875zm11.823914 4.984375q-0.9375 0 -1.71875 -0.5q-0.78125 -0.5 -1.234375 -1.375q-0.4375 -0.890625 -0.4375 -1.96875l0 -0.3125q0 -1.078125 0.421875 -1.96875q0.4375 -0.90625 1.1875 -1.40625q0.75 -0.5 1.640625 -0.5q1.296875 0 2.109375 0.921875q0.828125 0.921875 0.828125 2.4375l0 0.40625l-5.796875 0l0 0.421875q0 0.9375 0.390625 1.75q0.390625 0.796875 1.09375 1.265625q0.703125 0.453125 1.515625 0.453125q0.78125 0 1.328125 -0.265625q0.546875 -0.265625 0.96875 -0.796875l0.265625 0.1875q-0.859375 1.25 -2.5625 1.25zm-0.140625 -7.640625q-1.140625 0 -1.921875 0.84375q-0.78125 0.84375 -0.921875 2.140625l5.390625 0l0 -0.09375q0 -0.78125 -0.328125 -1.453125q-0.328125 -0.6875 -0.921875 -1.0625q-0.578125 -0.375 -1.296875 -0.375zm9.510345 5.609375q0 -1.421875 -2.40625 -1.921875q-1.4375 -0.3125 -2.015625 -0.796875q-0.5624695 -0.484375 -0.5624695 -1.328125q0 -0.84375 0.7187195 -1.390625q0.734375 -0.5625 1.875 -0.5625q1.25 0 2.015625 0.609375q0.765625 0.59375 0.765625 1.609375l-0.40625 0q0 -0.78125 -0.65625 -1.296875q-0.65625 -0.53125 -1.71875 -0.53125q-1.015625 0 -1.609375 0.453125q-0.5937195 0.4375 -0.5937195 1.09375q0 0.53125 0.21871948 0.828125q0.234375 0.296875 0.734375 0.546875q0.5 0.234375 1.453125 0.453125q0.953125 0.21875 1.515625 0.515625q0.5625 0.296875 0.8125 0.71875q0.25 0.40625 0.25 1.0q0 0.921875 -0.75 1.484375q-0.75 0.546875 -1.96875 0.546875q-1.296875 0 -2.109375 -0.578125q-0.7968445 -0.59375 -0.7968445 -1.53125l0.390625 0q0.0625 0.8125 0.7187195 1.265625q0.671875 0.453125 1.796875 0.453125q1.03125 0 1.671875 -0.46875q0.65625 -0.484375 0.65625 -1.171875zm5.3079834 2.03125q-0.9375 0 -1.71875 -0.5q-0.78125 -0.5 -1.234375 -1.375q-0.4375 -0.890625 -0.4375 -1.96875l0 -0.3125q0 -1.078125 0.421875 -1.96875q0.4375 -0.90625 1.1875 -1.40625q0.75 -0.5 1.640625 -0.5q1.296875 0 2.109375 0.921875q0.828125 0.921875 0.828125 2.4375l0 0.40625l-5.796875 0l0 0.421875q0 0.9375 0.390625 1.75q0.390625 0.796875 1.09375 1.265625q0.703125 0.453125 1.515625 0.453125q0.78125 0 1.328125 -0.265625q0.546875 -0.265625 0.96875 -0.796875l0.265625 0.1875q-0.859375 1.25 -2.5625 1.25zm-0.140625 -7.640625q-1.140625 0 -1.921875 0.84375q-0.78125 0.84375 -0.921875 2.140625l5.390625 0l0 -0.09375q0 -0.78125 -0.328125 -1.453125q-0.328125 -0.6875 -0.921875 -1.0625q-0.578125 -0.375 -1.296875 -0.375zm8.151001 0.03125l-0.5 -0.03125q-0.984375 0 -1.65625 0.640625q-0.65625 0.640625 -0.859375 1.78125l0 5.078125l-0.390625 0l0 -7.75l0.390625 0l0 1.609375q0.3125 -0.796875 0.9375 -1.265625q0.625 -0.484375 1.578125 -0.484375q0.34375 0 0.546875 0.078125l-0.046875 0.34375zm3.8903809 6.859375l2.796875 -7.140625l0.40625 0l-3.015625 7.75l-0.375 0l-3.0 -7.75l0.40625 0l2.78125 7.140625zm7.421509 0.75q-0.9375 0 -1.71875 -0.5q-0.78125 -0.5 -1.234375 -1.375q-0.4375 -0.890625 -0.4375 -1.96875l0 -0.3125q0 -1.078125 0.421875 -1.96875q0.4375 -0.90625 1.1875 -1.40625q0.75 -0.5 1.640625 -0.5q1.296875 0 2.109375 0.921875q0.828125 0.921875 0.828125 2.4375l0 0.40625l-5.796875 0l0 0.421875q0 0.9375 0.390625 1.75q0.390625 0.796875 1.09375 1.265625q0.703125 0.453125 1.515625 0.453125q0.78125 0 1.328125 -0.265625q0.546875 -0.265625 0.96875 -0.796875l0.265625 0.1875q-0.859375 1.25 -2.5625 1.25zm-0.140625 -7.640625q-1.140625 0 -1.921875 0.84375q-0.78125 0.84375 -0.921875 2.140625l5.390625 0l0 -0.09375q0 -0.78125 -0.328125 -1.453125q-0.328125 -0.6875 -0.921875 -1.0625q-0.578125 -0.375 -1.296875 -0.375zm4.385376 3.546875q0 -1.84375 0.78125 -2.890625q0.78125 -1.046875 2.140625 -1.046875q0.875 0 1.53125 0.40625q0.671875 0.390625 1.09375 1.171875l0 -4.6875l0.390625 0l0 11.0l-0.390625 0l0 -1.234375q-0.390625 0.65625 -1.078125 1.015625q-0.6875 0.359375 -1.5625 0.359375q-1.34375 0 -2.125 -1.0625q-0.78125 -1.0625 -0.78125 -2.921875l0 -0.109375zm0.40625 0.15625q0 1.640625 0.640625 2.59375q0.65625 0.953125 1.84375 0.953125q0.96875 0 1.640625 -0.421875q0.6875 -0.421875 1.015625 -1.25l0 -3.625q-0.671875 -1.953125 -2.640625 -1.953125q-1.1875 0 -1.84375 0.9375q-0.65625 0.9375 -0.65625 2.765625z" fill-rule="nonzero"/><path fill="#eeeeee" d="m454.81366 400.36096l0 0c0 -2.2961426 1.8613892 -4.1575623 4.1575623 -4.1575623l128.2203 0c1.1026611 0 2.1601562 0.43804932 2.9398193 1.2177429c0.7797241 0.7796936 1.2177124 1.8371887 1.2177124 2.9398193l0 16.62976c0 2.296173 -1.8613892 4.1575623 -4.1575317 4.1575623l-128.2203 0c-2.296173 0 -4.1575623 -1.8613892 -4.1575623 -4.1575623z" fill-rule="evenodd"/><path stroke="#595959" stroke-width="1.0" stroke-linejoin="round" stroke-linecap="butt" d="m454.81366 400.36096l0 0c0 -2.2961426 1.8613892 -4.1575623 4.1575623 -4.1575623l128.2203 0c1.1026611 0 2.1601562 0.43804932 2.9398193 1.2177429c0.7797241 0.7796936 1.2177124 1.8371887 1.2177124 2.9398193l0 16.62976c0 2.296173 -1.8613892 4.1575623 -4.1575317 4.1575623l-128.2203 0c-2.296173 0 -4.1575623 -1.8613892 -4.1575623 -4.1575623z" fill-rule="evenodd"/><path fill="#000000" d="m505.29245 413.75586l-0.390625 0l0 -10.421875l0.390625 0l0 10.421875zm3.3371277 -5.9375q0.375 -0.90625 1.109375 -1.421875q0.734375 -0.53125 1.625 -0.53125q1.25 0 1.84375 0.71875q0.609375 0.703125 0.625 2.125l0 5.046875l-0.390625 0l0 -5.0625q0 -1.25 -0.5 -1.84375q-0.5 -0.59375 -1.59375 -0.59375q-1.0 0 -1.734375 0.71875q-0.734375 0.703125 -0.984375 1.828125l0 4.953125l-0.390625 0l0 -7.75l0.390625 0l0 1.8125zm18.34143 -4.484375l0 7.0625q0 1.65625 -0.953125 2.578125q-0.953125 0.921875 -2.59375 0.921875q-1.640625 0 -2.609375 -0.921875q-0.953125 -0.921875 -0.953125 -2.546875l0 -7.09375l0.375 0l0 7.046875q0 1.4375 0.875 2.28125q0.875 0.84375 2.3125 0.84375q1.4375 0 2.296875 -0.84375q0.875 -0.84375 0.875 -2.296875l0 -7.03125l0.375 0zm7.3309326 8.53125q0 -1.421875 -2.40625 -1.921875q-1.4375 -0.3125 -2.015625 -0.796875q-0.5625 -0.484375 -0.5625 -1.328125q0 -0.84375 0.71875 -1.390625q0.734375 -0.5625 1.875 -0.5625q1.25 0 2.015625 0.609375q0.765625 0.59375 0.765625 1.609375l-0.40625 0q0 -0.78125 -0.65625 -1.296875q-0.65625 -0.53125 -1.71875 -0.53125q-1.015625 0 -1.609375 0.453125q-0.59375 0.4375 -0.59375 1.09375q0 0.53125 0.21875 0.828125q0.234375 0.296875 0.734375 0.546875q0.5 0.234375 1.453125 0.453125q0.953125 0.21875 1.515625 0.515625q0.5625 0.296875 0.8125 0.71875q0.25 0.40625 0.25 1.0q0 0.921875 -0.75 1.484375q-0.75 0.546875 -1.96875 0.546875q-1.296875 0 -2.109375 -0.578125q-0.796875 -0.59375 -0.796875 -1.53125l0.390625 0q0.0625 0.8125 0.71875 1.265625q0.671875 0.453125 1.796875 0.453125q1.03125 0 1.671875 -0.46875q0.65625 -0.484375 0.65625 -1.171875zm5.3079834 2.03125q-0.9375 0 -1.71875 -0.5q-0.78125 -0.5 -1.234375 -1.375q-0.4375 -0.890625 -0.4375 -1.96875l0 -0.3125q0 -1.078125 0.421875 -1.96875q0.4375 -0.90625 1.1875 -1.40625q0.75 -0.5 1.640625 -0.5q1.296875 0 2.109375 0.921875q0.828125 0.921875 0.828125 2.4375l0 0.40625l-5.796875 0l0 0.421875q0 0.9375 0.390625 1.75q0.390625 0.796875 1.09375 1.265625q0.703125 0.453125 1.515625 0.453125q0.78125 0 1.328125 -0.265625q0.546875 -0.265625 0.96875 -0.796875l0.265625 0.1875q-0.859375 1.25 -2.5625 1.25zm-0.140625 -7.640625q-1.140625 0 -1.921875 0.84375q-0.78125 0.84375 -0.921875 2.140625l5.390625 0l0 -0.09375q0 -0.78125 -0.328125 -1.453125q-0.328125 -0.6875 -0.921875 -1.0625q-0.578125 -0.375 -1.296875 -0.375z" fill-rule="nonzero"/><path fill="#eeeeee" d="m454.81366 432.0132l0 0c0 -2.296173 1.8613892 -4.1575623 4.1575623 -4.1575623l128.2203 0c1.1026611 0 2.1601562 0.4380188 2.9398193 1.2177124c0.7797241 0.7796936 1.2177124 1.8371887 1.2177124 2.9398499l0 16.62976c0 2.2961426 -1.8613892 4.1575623 -4.1575317 4.1575623l-128.2203 0c-2.296173 0 -4.1575623 -1.8614197 -4.1575623 -4.1575623z" fill-rule="evenodd"/><path stroke="#595959" stroke-width="1.0" stroke-linejoin="round" stroke-linecap="butt" d="m454.81366 432.0132l0 0c0 -2.296173 1.8613892 -4.1575623 4.1575623 -4.1575623l128.2203 0c1.1026611 0 2.1601562 0.4380188 2.9398193 1.2177124c0.7797241 0.7796936 1.2177124 1.8371887 1.2177124 2.9398499l0 16.62976c0 2.2961426 -1.8613892 4.1575623 -4.1575317 4.1575623l-128.2203 0c-2.296173 0 -4.1575623 -1.8614197 -4.1575623 -4.1575623z" fill-rule="evenodd"/><path fill="#000000" d="m484.0812 434.9862l4.28125 9.859375l4.296875 -9.859375l0.578125 0l0 10.421875l-0.390625 0l0 -9.84375l-4.328125 9.84375l-0.296875 0l-4.3125 -9.796875l0 9.796875l-0.375 0l0 -10.421875l0.546875 0zm16.81659 10.421875q-0.140625 -0.5 -0.140625 -1.421875q-0.46875 0.75 -1.265625 1.15625q-0.78125 0.40625 -1.78125 0.40625q-1.078125 0 -1.734375 -0.578125q-0.65625 -0.578125 -0.65625 -1.515625q0 -1.078125 0.953125 -1.71875q0.96875 -0.640625 2.5625 -0.65625l1.921875 0l0 -1.125q0 -0.96875 -0.625 -1.5q-0.609375 -0.546875 -1.734375 -0.546875q-1.0625 0 -1.78125 0.546875q-0.703125 0.546875 -0.703125 1.34375l-0.390625 -0.015625q0 -0.9375 0.828125 -1.59375q0.84375 -0.671875 2.046875 -0.671875q1.25 0 1.984375 0.625q0.734375 0.625 0.75 1.765625l0 3.703125q0 1.28125 0.203125 1.734375l0 0.0625l-0.4375 0zm-3.1875 -0.234375q1.078125 0 1.859375 -0.484375q0.796875 -0.484375 1.1875 -1.375l0 -1.828125l-1.796875 0q-1.65625 0 -2.53125 0.65625q-0.71875 0.53125 -0.71875 1.328125q0 0.71875 0.5625 1.21875q0.5625 0.484375 1.4375 0.484375zm6.392273 0.234375l-0.375 0l0 -7.75l0.375 0l0 7.75zm-0.578125 -10.15625q0 -0.171875 0.109375 -0.28125q0.125 -0.125 0.28125 -0.125q0.171875 0 0.28125 0.125q0.125 0.109375 0.125 0.28125q0 0.15625 -0.125 0.28125q-0.109375 0.109375 -0.28125 0.109375q-0.15625 0 -0.28125 -0.109375q-0.109375 -0.125 -0.109375 -0.28125zm3.519989 4.21875q0.375 -0.90625 1.109375 -1.421875q0.734375 -0.53125 1.625 -0.53125q1.25 0 1.84375 0.71875q0.609375 0.703125 0.625 2.125l0 5.046875l-0.390625 0l0 -5.0625q0 -1.25 -0.5 -1.84375q-0.5 -0.59375 -1.59375 -0.59375q-1.0 0 -1.734375 0.71875q-0.734375 0.703125 -0.984375 1.828125l0 4.953125l-0.390625 0l0 -7.75l0.390625 0l0 1.8125zm8.491028 -3.890625l0 2.078125l1.765625 0l0 0.40625l-1.765625 0l0 5.484375q0 0.828125 0.265625 1.21875q0.28125 0.390625 0.90625 0.390625q0.3125 0 0.765625 -0.0625l0.0625 0.375q-0.234375 0.078125 -0.8125 0.078125q-0.84375 0 -1.21875 -0.46875q-0.359375 -0.46875 -0.359375 -1.46875l0 -5.546875l-1.4375 0l0 -0.40625l1.4375 0l0 -2.078125l0.390625 0zm6.559204 9.96875q-0.9375 0 -1.71875 -0.5q-0.78125 -0.5 -1.234375 -1.375q-0.4375 -0.890625 -0.4375 -1.96875l0 -0.3125q0 -1.078125 0.421875 -1.96875q0.4375 -0.90625 1.1875 -1.40625q0.75 -0.5 1.640625 -0.5q1.296875 0 2.109375 0.921875q0.828125 0.921875 0.828125 2.4375l0 0.40625l-5.796875 0l0 0.421875q0 0.9375 0.390625 1.75q0.390625 0.796875 1.09375 1.265625q0.703125 0.453125 1.515625 0.453125q0.78125 0 1.328125 -0.265625q0.546875 -0.265625 0.96875 -0.796875l0.265625 0.1875q-0.859375 1.25 -2.5625 1.25zm-0.140625 -7.640625q-1.140625 0 -1.921875 0.84375q-0.78125 0.84375 -0.921875 2.140625l5.390625 0l0 -0.09375q0 -0.78125 -0.328125 -1.453125q-0.328125 -0.6875 -0.921875 -1.0625q-0.578125 -0.375 -1.296875 -0.375zm5.135376 1.5625q0.375 -0.90625 1.109375 -1.421875q0.734375 -0.53125 1.625 -0.53125q1.25 0 1.84375 0.71875q0.609375 0.703125 0.625 2.125l0 5.046875l-0.390625 0l0 -5.0625q0 -1.25 -0.5 -1.84375q-0.5 -0.59375 -1.59375 -0.59375q-1.0 0 -1.734375 0.71875q-0.734375 0.703125 -0.984375 1.828125l0 4.953125l-0.390625 0l0 -7.75l0.390625 0l0 1.8125zm12.631714 5.9375q-0.140625 -0.5 -0.140625 -1.421875q-0.46875 0.75 -1.265625 1.15625q-0.78125 0.40625 -1.78125 0.40625q-1.078125 0 -1.734375 -0.578125q-0.65625 -0.578125 -0.65625 -1.515625q0 -1.078125 0.953125 -1.71875q0.96875 -0.640625 2.5625 -0.65625l1.921875 0l0 -1.125q0 -0.96875 -0.625 -1.5q-0.609375 -0.546875 -1.734375 -0.546875q-1.0625 0 -1.78125 0.546875q-0.703125 0.546875 -0.703125 1.34375l-0.390625 -0.015625q0 -0.9375 0.828125 -1.59375q0.84375 -0.671875 2.046875 -0.671875q1.25 0 1.984375 0.625q0.734375 0.625 0.75 1.765625l0 3.703125q0 1.28125 0.203125 1.734375l0 0.0625l-0.4375 0zm-3.1875 -0.234375q1.078125 0 1.859375 -0.484375q0.796875 -0.484375 1.1875 -1.375l0 -1.828125l-1.796875 0q-1.65625 0 -2.53125 0.65625q-0.71875 0.53125 -0.71875 1.328125q0 0.71875 0.5625 1.21875q0.5625 0.484375 1.4375 0.484375zm6.314148 -5.703125q0.375 -0.90625 1.109375 -1.421875q0.734375 -0.53125 1.625 -0.53125q1.25 0 1.84375 0.71875q0.609375 0.703125 0.625 2.125l0 5.046875l-0.390625 0l0 -5.0625q0 -1.25 -0.5 -1.84375q-0.5 -0.59375 -1.59375 -0.59375q-1.0 0 -1.734375 0.71875q-0.734375 0.703125 -0.984375 1.828125l0 4.953125l-0.390625 0l0 -7.75l0.390625 0l0 1.8125zm10.256653 5.6875q1.046875 0 1.734375 -0.546875q0.6875 -0.5625 0.75 -1.546875l0.390625 0q-0.0625 1.125 -0.875 1.8125q-0.8125 0.671875 -2.0 0.671875q-1.453125 0 -2.3125 -1.046875q-0.859375 -1.046875 -0.859375 -2.859375l0 -0.25q0 -1.765625 0.859375 -2.8125q0.859375 -1.0625 2.296875 -1.0625q1.234375 0 2.03125 0.75q0.796875 0.734375 0.859375 1.953125l-0.390625 0q-0.046875 -1.046875 -0.734375 -1.671875q-0.6875 -0.640625 -1.765625 -0.640625q-1.296875 0 -2.03125 0.9375q-0.734375 0.9375 -0.734375 2.59375l0 0.25q0 1.625 0.734375 2.546875q0.75 0.921875 2.046875 0.921875zm7.591736 0.390625q-0.9375 0 -1.71875 -0.5q-0.78125 -0.5 -1.234375 -1.375q-0.4375 -0.890625 -0.4375 -1.96875l0 -0.3125q0 -1.078125 0.421875 -1.96875q0.4375 -0.90625 1.1875 -1.40625q0.75 -0.5 1.640625 -0.5q1.296875 0 2.109375 0.921875q0.828125 0.921875 0.828125 2.4375l0 0.40625l-5.796875 0l0 0.421875q0 0.9375 0.390625 1.75q0.390625 0.796875 1.09375 1.265625q0.703125 0.453125 1.515625 0.453125q0.78125 0 1.328125 -0.265625q0.546875 -0.265625 0.96875 -0.796875l0.265625 0.1875q-0.859375 1.25 -2.5625 1.25zm-0.140625 -7.640625q-1.140625 0 -1.921875 0.84375q-0.78125 0.84375 -0.921875 2.140625l5.390625 0l0 -0.09375q0 -0.78125 -0.328125 -1.453125q-0.328125 -0.6875 -0.921875 -1.0625q-0.578125 -0.375 -1.296875 -0.375z" fill-rule="nonzero"/><path fill="#eeeeee" d="m454.81366 463.66412l0 0c0 -2.2961426 1.8613892 -4.1575623 4.1575623 -4.1575623l128.2203 0c1.1026611 0 2.1601562 0.4380188 2.9398193 1.2177124c0.7797241 0.7796936 1.2177124 1.8371887 1.2177124 2.9398499l0 16.62976c0 2.2961426 -1.8613892 4.1575623 -4.1575317 4.1575623l-128.2203 0c-2.296173 0 -4.1575623 -1.8614197 -4.1575623 -4.1575623z" fill-rule="evenodd"/><path stroke="#595959" stroke-width="1.0" stroke-linejoin="round" stroke-linecap="butt" d="m454.81366 463.66412l0 0c0 -2.2961426 1.8613892 -4.1575623 4.1575623 -4.1575623l128.2203 0c1.1026611 0 2.1601562 0.4380188 2.9398193 1.2177124c0.7797241 0.7796936 1.2177124 1.8371887 1.2177124 2.9398499l0 16.62976c0 2.2961426 -1.8613892 4.1575623 -4.1575317 4.1575623l-128.2203 0c-2.296173 0 -4.1575623 -1.8614197 -4.1575623 -4.1575623z" fill-rule="evenodd"/><path fill="#000000" d="m467.24643 477.059l0 -10.421875l2.875 0q1.21875 0 2.1875 0.578125q0.984375 0.5625 1.546875 1.609375q0.5625 1.03125 0.5625 2.3125l0 1.34375q0 1.3125 -0.546875 2.359375q-0.546875 1.03125 -1.53125 1.625q-0.96875 0.59375 -2.1875 0.59375l-2.90625 0zm0.375 -10.03125l0 9.640625l2.5 0q1.09375 0 1.984375 -0.53125q0.90625 -0.53125 1.40625 -1.484375q0.515625 -0.953125 0.53125 -2.125l0 -1.34375q0 -1.15625 -0.5 -2.109375q-0.5 -0.953125 -1.390625 -1.484375q-0.890625 -0.546875 -1.96875 -0.5625l-2.5625 0zm11.792664 10.171875q-0.9375 0 -1.71875 -0.5q-0.78125 -0.5 -1.234375 -1.375q-0.4375 -0.890625 -0.4375 -1.96875l0 -0.3125q0 -1.078125 0.421875 -1.96875q0.4375 -0.90625 1.1875 -1.40625q0.75 -0.5 1.640625 -0.5q1.296875 0 2.109375 0.921875q0.828125 0.921875 0.828125 2.4375l0 0.40625l-5.796875 0l0 0.421875q0 0.9375 0.390625 1.75q0.390625 0.796875 1.09375 1.265625q0.703125 0.453125 1.515625 0.453125q0.78125 0 1.328125 -0.265625q0.546875 -0.265625 0.96875 -0.796875l0.265625 0.1875q-0.859375 1.25 -2.5625 1.25zm-0.140625 -7.640625q-1.140625 0 -1.921875 0.84375q-0.78125 0.84375 -0.921875 2.140625l5.390625 0l0 -0.09375q0 -0.78125 -0.328125 -1.453125q-0.328125 -0.6875 -0.921875 -1.0625q-0.578125 -0.375 -1.296875 -0.375zm7.369751 7.25q1.046875 0 1.734375 -0.546875q0.6875 -0.5625 0.75 -1.546875l0.390625 0q-0.0625 1.125 -0.875 1.8125q-0.8125 0.671875 -2.0 0.671875q-1.453125 0 -2.3125 -1.046875q-0.859375 -1.046875 -0.859375 -2.859375l0 -0.25q0 -1.765625 0.859375 -2.8125q0.859375 -1.0625 2.296875 -1.0625q1.234375 0 2.03125 0.75q0.796875 0.734375 0.859375 1.953125l-0.390625 0q-0.046875 -1.046875 -0.734375 -1.671875q-0.6875 -0.640625 -1.765625 -0.640625q-1.296875 0 -2.03125 0.9375q-0.734375 0.9375 -0.734375 2.59375l0 0.25q0 1.625 0.734375 2.546875q0.75 0.921875 2.046875 0.921875zm4.2167053 -3.765625q0 -1.109375 0.421875 -2.0q0.4375 -0.890625 1.203125 -1.375q0.78125 -0.5 1.765625 -0.5q0.96875 0 1.734375 0.484375q0.78125 0.484375 1.203125 1.359375q0.4375 0.875 0.453125 1.984375l0 0.34375q0 1.109375 -0.421875 2.0q-0.421875 0.875 -1.203125 1.375q-0.765625 0.484375 -1.75 0.484375q-0.984375 0 -1.765625 -0.484375q-0.765625 -0.484375 -1.203125 -1.359375q-0.421875 -0.875 -0.4375 -1.96875l0 -0.34375zm0.390625 0.296875q0 0.96875 0.375 1.78125q0.390625 0.796875 1.0625 1.25q0.6875 0.4375 1.578125 0.4375q1.328125 0 2.15625 -0.984375q0.828125 -1.0 0.828125 -2.5625l0 -0.21875q0 -0.953125 -0.390625 -1.765625q-0.375 -0.8125 -1.0625 -1.265625q-0.6875 -0.453125 -1.546875 -0.453125q-1.328125 0 -2.171875 1.015625q-0.828125 1.0 -0.828125 2.53125l0 0.234375zm13.799622 3.71875l-0.375 0l0 -5.203125q-0.015625 -1.171875 -0.515625 -1.734375q-0.5 -0.5625 -1.609375 -0.5625q-1.28125 0 -2.078125 1.109375q-0.484375 0.6875 -0.640625 1.5l0 4.890625l-0.390625 0l0 -7.75l0.390625 0l0 1.84375q0.390625 -0.953125 1.125 -1.46875q0.734375 -0.515625 1.609375 -0.515625q0.984375 0 1.59375 0.4375q0.625 0.421875 0.8125 1.40625q0.34375 -0.84375 1.109375 -1.34375q0.78125 -0.5 1.75 -0.5q1.25 0 1.859375 0.71875q0.609375 0.703125 0.609375 2.125l0 5.046875l-0.375 0l0 -5.03125q0 -1.265625 -0.515625 -1.875q-0.515625 -0.609375 -1.609375 -0.59375q-1.40625 0.015625 -2.234375 1.109375q-0.46875 0.640625 -0.515625 1.234375l0 5.15625zm13.139099 0l-0.375 0l0 -5.203125q-0.015625 -1.171875 -0.515625 -1.734375q-0.5 -0.5625 -1.609375 -0.5625q-1.28125 0 -2.078125 1.109375q-0.484375 0.6875 -0.640625 1.5l0 4.890625l-0.390625 0l0 -7.75l0.390625 0l0 1.84375q0.390625 -0.953125 1.125 -1.46875q0.734375 -0.515625 1.609375 -0.515625q0.984375 0 1.59375 0.4375q0.625 0.421875 0.8125 1.40625q0.34375 -0.84375 1.109375 -1.34375q0.78125 -0.5 1.75 -0.5q1.25 0 1.859375 0.71875q0.609375 0.703125 0.609375 2.125l0 5.046875l-0.375 0l0 -5.03125q0 -1.265625 -0.515625 -1.875q-0.515625 -0.609375 -1.609375 -0.59375q-1.40625 0.015625 -2.234375 1.109375q-0.46875 0.640625 -0.515625 1.234375l0 5.15625zm8.076599 0l-0.375 0l0 -7.75l0.375 0l0 7.75zm-0.578125 -10.15625q0 -0.171875 0.109375 -0.28125q0.125 -0.125 0.28125 -0.125q0.171875 0 0.28125 0.125q0.125 0.109375 0.125 0.28125q0 0.15625 -0.125 0.28125q-0.109375 0.109375 -0.28125 0.109375q-0.15625 0 -0.28125 -0.109375q-0.109375 -0.125 -0.109375 -0.28125zm7.8949585 8.265625q0 -1.421875 -2.40625 -1.921875q-1.4375 -0.3125 -2.015625 -0.796875q-0.5625 -0.484375 -0.5625 -1.328125q0 -0.84375 0.71875 -1.390625q0.734375 -0.5625 1.875 -0.5625q1.25 0 2.015625 0.609375q0.765625 0.59375 0.765625 1.609375l-0.40625 0q0 -0.78125 -0.65625 -1.296875q-0.65625 -0.53125 -1.71875 -0.53125q-1.015625 0 -1.609375 0.453125q-0.59375 0.4375 -0.59375 1.09375q0 0.53125 0.21875 0.828125q0.234375 0.296875 0.734375 0.546875q0.5 0.234375 1.453125 0.453125q0.953125 0.21875 1.515625 0.515625q0.5625 0.296875 0.8125 0.71875q0.25 0.40625 0.25 1.0q0 0.921875 -0.75 1.484375q-0.75 0.546875 -1.96875 0.546875q-1.296875 0 -2.109375 -0.578125q-0.796875 -0.59375 -0.796875 -1.53125l0.390625 0q0.0625 0.8125 0.71875 1.265625q0.671875 0.453125 1.796875 0.453125q1.03125 0 1.671875 -0.46875q0.65625 -0.484375 0.65625 -1.171875zm7.2923584 0q0 -1.421875 -2.40625 -1.921875q-1.4375 -0.3125 -2.015625 -0.796875q-0.5625 -0.484375 -0.5625 -1.328125q0 -0.84375 0.71875 -1.390625q0.734375 -0.5625 1.875 -0.5625q1.25 0 2.015625 0.609375q0.765625 0.59375 0.765625 1.609375l-0.40625 0q0 -0.78125 -0.65625 -1.296875q-0.65625 -0.53125 -1.71875 -0.53125q-1.015625 0 -1.609375 0.453125q-0.59375 0.4375 -0.59375 1.09375q0 0.53125 0.21875 0.828125q0.234375 0.296875 0.734375 0.546875q0.5 0.234375 1.453125 0.453125q0.953125 0.21875 1.515625 0.515625q0.5625 0.296875 0.8125 0.71875q0.25 0.40625 0.25 1.0q0 0.921875 -0.75 1.484375q-0.75 0.546875 -1.96875 0.546875q-1.296875 0 -2.109375 -0.578125q-0.796875 -0.59375 -0.796875 -1.53125l0.390625 0q0.0625 0.8125 0.71875 1.265625q0.671875 0.453125 1.796875 0.453125q1.03125 0 1.671875 -0.46875q0.65625 -0.484375 0.65625 -1.171875zm2.9954834 1.890625l-0.375 0l0 -7.75l0.375 0l0 7.75zm-0.578125 -10.15625q0 -0.171875 0.109375 -0.28125q0.125 -0.125 0.28125 -0.125q0.171875 0 0.28125 0.125q0.125 0.109375 0.125 0.28125q0 0.15625 -0.125 0.28125q-0.109375 0.109375 -0.28125 0.109375q-0.15625 0 -0.28125 -0.109375q-0.109375 -0.125 -0.109375 -0.28125zm2.5355835 6.140625q0 -1.109375 0.421875 -2.0q0.4375 -0.890625 1.203125 -1.375q0.78125 -0.5 1.765625 -0.5q0.96875 0 1.734375 0.484375q0.78125 0.484375 1.203125 1.359375q0.4375 0.875 0.453125 1.984375l0 0.34375q0 1.109375 -0.421875 2.0q-0.421875 0.875 -1.203125 1.375q-0.765625 0.484375 -1.75 0.484375q-0.984375 0 -1.765625 -0.484375q-0.765625 -0.484375 -1.203125 -1.359375q-0.421875 -0.875 -0.4375 -1.96875l0 -0.34375zm0.390625 0.296875q0 0.96875 0.375 1.78125q0.390625 0.796875 1.0625 1.25q0.6875 0.4375 1.578125 0.4375q1.328125 0 2.15625 -0.984375q0.828125 -1.0 0.828125 -2.5625l0 -0.21875q0 -0.953125 -0.390625 -1.765625q-0.375 -0.8125 -1.0625 -1.265625q-0.6875 -0.453125 -1.546875 -0.453125q-1.328125 0 -2.171875 1.015625q-0.828125 1.0 -0.828125 2.53125l0 0.234375zm8.658997 -2.21875q0.375 -0.90625 1.109375 -1.421875q0.734375 -0.53125 1.625 -0.53125q1.25 0 1.84375 0.71875q0.609375 0.703125 0.625 2.125l0 5.046875l-0.390625 0l0 -5.0625q0 -1.25 -0.5 -1.84375q-0.5 -0.59375 -1.59375 -0.59375q-1.0 0 -1.734375 0.71875q-0.734375 0.703125 -0.984375 1.828125l0 4.953125l-0.390625 0l0 -7.75l0.390625 0l0 1.8125zm8.100403 5.9375l-0.375 0l0 -7.75l0.375 0l0 7.75zm-0.578125 -10.15625q0 -0.171875 0.109375 -0.28125q0.125 -0.125 0.28125 -0.125q0.171875 0 0.28125 0.125q0.125 0.109375 0.125 0.28125q0 0.15625 -0.125 0.28125q-0.109375 0.109375 -0.28125 0.109375q-0.15625 0 -0.28125 -0.109375q-0.109375 -0.125 -0.109375 -0.28125zm3.5200195 4.21875q0.375 -0.90625 1.109375 -1.421875q0.734375 -0.53125 1.625 -0.53125q1.25 0 1.84375 0.71875q0.609375 0.703125 0.625 2.125l0 5.046875l-0.390625 0l0 -5.0625q0 -1.25 -0.5 -1.84375q-0.5 -0.59375 -1.59375 -0.59375q-1.0 0 -1.734375 0.71875q-0.734375 0.703125 -0.984375 1.828125l0 4.953125l-0.390625 0l0 -7.75l0.390625 0l0 1.8125zm7.256653 1.984375q0 -1.84375 0.78125 -2.890625q0.78125 -1.046875 2.140625 -1.046875q0.875 0 1.546875 0.40625q0.671875 0.390625 1.078125 1.15625l0 -1.421875l0.390625 0l0 7.609375q0 1.53125 -0.796875 2.390625q-0.78125 0.875 -2.125 0.875q-0.78125 0 -1.4375 -0.34375q-0.640625 -0.328125 -1.09375 -0.96875l0.265625 -0.25q0.453125 0.5625 0.984375 0.859375q0.546875 0.3125 1.265625 0.3125q1.1875 0 1.859375 -0.734375q0.671875 -0.71875 0.6875 -2.03125l0 -1.1875q-0.40625 0.65625 -1.09375 1.015625q-0.671875 0.34375 -1.546875 0.34375q-1.34375 0 -2.125 -1.0625q-0.78125 -1.0625 -0.78125 -2.921875l0 -0.109375zm0.40625 0.15625q0 1.65625 0.65625 2.609375q0.65625 0.9375 1.84375 0.9375q0.984375 0 1.671875 -0.453125q0.6875 -0.453125 0.96875 -1.265625l0 -3.515625q-0.625 -2.015625 -2.625 -2.015625q-1.203125 0 -1.859375 0.9375q-0.65625 0.9375 -0.65625 2.765625z" fill-rule="nonzero"/><path fill="#000000" fill-opacity="0.0" d="m592.9239 378.33334c2.9348145 2.9348145 17.44574 12.39151 17.608948 17.608917c0.16314697 5.217407 -13.858276 11.412933 -16.629944 13.695526" fill-rule="evenodd"/><path stroke="#595959" stroke-width="1.0" stroke-linejoin="round" stroke-linecap="butt" d="m592.9239 378.33334c2.9348145 2.9348145 17.44574 12.39151 17.608948 17.608917c0.081604004 2.608673 -3.3829956 5.4619446 -7.2144165 7.9483337c-0.95788574 0.62158203 -1.9386597 1.2202454 -2.8927002 1.786438c-0.47698975 0.28311157 -0.94732666 0.55804443 -1.4047852 0.82369995l-0.0025634766 0.0015258789" fill-rule="evenodd"/><path fill="#595959" stroke="#595959" stroke-width="1.0" stroke-linecap="butt" d="m598.1552 405.094l-3.0059204 3.7798157l4.7323 -0.9633179z" fill-rule="evenodd"/><path fill="#000000" fill-opacity="0.0" d="m594.8793 411.59317c3.2611694 2.2825928 19.729675 8.640869 19.566895 13.695557c-0.16271973 5.054657 -17.119385 13.860443 -20.543274 16.632538" fill-rule="evenodd"/><path stroke="#595959" stroke-width="1.0" stroke-linejoin="round" stroke-linecap="butt" d="m594.8793 411.59317c3.2611694 2.2826233 19.729675 8.640869 19.566895 13.695557c-0.08135986 2.5273132 -4.361206 5.9924316 -9.048706 9.172241c-1.171875 0.7949524 -2.3692017 1.572052 -3.5327759 2.3121948c-0.58184814 0.37008667 -1.1552124 0.7309265 -1.7127075 1.0801697l-1.2355347 0.77178955" fill-rule="evenodd"/><path fill="#595959" stroke="#595959" stroke-width="1.0" stroke-linecap="butt" d="m598.00903 437.24493l-2.8845825 3.87323l4.699341 -1.1128845z" fill-rule="evenodd"/><path fill="#000000" fill-opacity="0.0" d="m592.9239 441.92126c4.076111 2.60849 24.456665 10.433502 24.456665 15.650909c0 5.217407 -20.380554 13.044617 -24.456665 15.653534" fill-rule="evenodd"/><path stroke="#595959" stroke-width="1.0" stroke-linejoin="round" stroke-linecap="butt" d="m592.9239 441.92126c4.076111 2.6084595 24.456665 10.433502 24.456665 15.650909c0 2.608673 -5.095093 5.8698425 -10.699768 8.804962c-2.8023682 1.4675598 -5.7320557 2.8535767 -8.215942 4.0357666l-0.19317627 0.09237671" fill-rule="evenodd"/><path fill="#595959" stroke="#595959" stroke-width="1.0" stroke-linecap="butt" d="m597.52277 469.03308l-3.2958984 3.5298157l4.793762 -0.5854187z" fill-rule="evenodd"/><path fill="#000000" fill-opacity="0.0" d="m455.96588 440.94226c-3.0975647 -2.6089172 -18.585297 -10.1102295 -18.585297 -15.653534c0 -5.543335 15.487732 -14.671936 18.585297 -17.606323" fill-rule="evenodd"/><path stroke="#595959" stroke-width="1.0" stroke-linejoin="round" stroke-linecap="butt" d="m455.96588 440.94226c-3.0975647 -2.6089172 -18.585297 -10.1102295 -18.585297 -15.653534c0 -2.7716675 3.8719177 -6.439636 8.131073 -9.781494c1.0647888 -0.83547974 2.1537476 -1.6505737 3.2124634 -2.4261475c0.5293579 -0.38781738 1.051178 -0.7657471 1.5585938 -1.1314087l0.8991699 -0.6459961" fill-rule="evenodd"/><path fill="#595959" stroke="#595959" stroke-width="1.0" stroke-linecap="butt" d="m452.17877 412.62064l2.6214905 -4.055908l-4.615265 1.4219666z" fill-rule="evenodd"/><path fill="#eeeeee" d="m355.2047 306.8924l5.3858337 -5.3858337l5.3858337 5.3858337l-2.6929016 0l0 9.763763l2.6929016 0l-5.3858337 5.3858337l-5.3858337 -5.3858337l2.6929321 0l0 -9.763763z" fill-rule="evenodd"/><path stroke="#595959" stroke-width="1.0" stroke-linejoin="round" stroke-linecap="butt" d="m355.2047 306.8924l5.3858337 -5.3858337l5.3858337 5.3858337l-2.6929016 0l0 9.763763l2.6929016 0l-5.3858337 5.3858337l-5.3858337 -5.3858337l2.6929321 0l0 -9.763763z" fill-rule="evenodd"/><path fill="#eeeeee" d="m539.2047 306.8924l5.3858643 -5.3858337l5.385803 5.3858337l-2.6929321 0l0 9.763763l2.6929321 0l-5.385803 5.3858337l-5.3858643 -5.3858337l2.6929321 0l0 -9.763763z" fill-rule="evenodd"/><path stroke="#595959" stroke-width="1.0" stroke-linejoin="round" stroke-linecap="butt" d="m539.2047 306.8924l5.3858643 -5.3858337l5.385803 5.3858337l-2.6929321 0l0 9.763763l2.6929321 0l-5.385803 5.3858337l-5.3858643 -5.3858337l2.6929321 0l0 -9.763763z" fill-rule="evenodd"/><path fill="#eeeeee" d="m162.48819 258.958l5.3858185 -5.3858337l5.3858337 5.3858337l-2.6929169 0l0 14.173218l2.6929169 0l-5.3858337 5.3858337l-5.3858185 -5.3858337l2.6929169 0l0 -14.173218z" fill-rule="evenodd"/><path stroke="#595959" stroke-width="1.0" stroke-linejoin="round" stroke-linecap="butt" d="m162.48819 258.958l5.3858185 -5.3858337l5.3858337 5.3858337l-2.6929169 0l0 14.173218l2.6929169 0l-5.3858337 5.3858337l-5.3858185 -5.3858337l2.6929169 0l0 -14.173218z" fill-rule="evenodd"/><path fill="#eeeeee" d="m732.7454 260.1824l5.385803 -5.3858185l5.3858643 5.3858185l-2.6929321 0l0 14.173248l2.6929321 0l-5.3858643 5.385803l-5.385803 -5.385803l2.692871 0l0 -14.173248z" fill-rule="evenodd"/><path stroke="#595959" stroke-width="1.0" stroke-linejoin="round" stroke-linecap="butt" d="m732.7454 260.1824l5.385803 -5.3858185l5.3858643 5.3858185l-2.6929321 0l0 14.173248l2.6929321 0l-5.3858643 5.385803l-5.385803 -5.385803l2.692871 0l0 -14.173248z" fill-rule="evenodd"/><path fill="#000000" fill-opacity="0.0" d="m246.44357 228.6273l410.4882 0" fill-rule="evenodd"/><path stroke="#4285f4" stroke-width="4.0" stroke-linejoin="round" stroke-linecap="butt" stroke-dasharray="16.0,12.0" d="m246.44357 228.6273l410.4882 0" fill-rule="evenodd"/><path fill="#000000" fill-opacity="0.0" d="m356.6168 251.99213l0.5354309 -21.88977" fill-rule="evenodd"/><path stroke="#4285f4" stroke-width="4.0" stroke-linejoin="round" stroke-linecap="butt" stroke-dasharray="16.0,12.0" d="m356.6168 251.99213l0.5354309 -21.88977" fill-rule="evenodd"/><path fill="#000000" fill-opacity="0.0" d="m548.6168 251.99213l0.5354004 -21.88977" fill-rule="evenodd"/><path stroke="#4285f4" stroke-width="4.0" stroke-linejoin="round" stroke-linecap="butt" stroke-dasharray="16.0,12.0" d="m548.6168 251.99213l0.5354004 -21.88977" fill-rule="evenodd"/><path fill="#000000" fill-opacity="0.0" d="m451.42126 223.56168l0.5354309 -21.889755" fill-rule="evenodd"/><path stroke="#4285f4" stroke-width="4.0" stroke-linejoin="round" stroke-linecap="butt" stroke-dasharray="16.0,12.0" d="m451.42126 223.56168l0.5354309 -21.889755" fill-rule="evenodd"/><path fill="#fff2cc" d="m286.89764 154.11023l96.66141 0l0 33.259842l-96.66141 0z" fill-rule="evenodd"/><path stroke="#78909c" stroke-width="1.0" stroke-linejoin="round" stroke-linecap="round" d="m286.89764 154.11023l96.66141 0l0 33.259842l-96.66141 0z" fill-rule="evenodd"/><path fill="#595959" d="m317.09943 171.04703l-5.3125 0l0 4.640625l6.109375 0l0 0.8125l-7.078125 0l0 -11.375l7.046875 0l0 0.8125l-6.078125 0l0 4.296875l5.3125 0l0 0.8125zm7.6640625 3.296875q0 -0.6875 -0.5625 -1.109375q-0.546875 -0.421875 -1.671875 -0.65625q-1.125 -0.25 -1.75 -0.546875q-0.625 -0.3125 -0.921875 -0.75q-0.296875 -0.453125 -0.296875 -1.09375q0 -1.0 0.828125 -1.640625q0.84375 -0.65625 2.140625 -0.65625q1.421875 0 2.265625 0.703125q0.859375 0.6875 0.859375 1.8125l-0.9375 0q0 -0.734375 -0.625 -1.21875q-0.609375 -0.5 -1.5625 -0.5q-0.921875 0 -1.484375 0.40625q-0.546875 0.40625 -0.546875 1.0625q0 0.640625 0.453125 0.984375q0.46875 0.34375 1.703125 0.640625q1.234375 0.28125 1.84375 0.609375q0.609375 0.328125 0.90625 0.796875q0.296875 0.453125 0.296875 1.109375q0 1.078125 -0.859375 1.71875q-0.859375 0.640625 -2.25 0.640625q-1.484375 0 -2.40625 -0.71875q-0.90625 -0.71875 -0.90625 -1.8125l0.9375 0q0.046875 0.828125 0.6875 1.28125q0.640625 0.453125 1.6875 0.453125q0.96875 0 1.5625 -0.421875q0.609375 -0.4375 0.609375 -1.09375zm6.1640625 1.515625q0.984375 0 1.640625 -0.546875q0.65625 -0.546875 0.71875 -1.421875l0.890625 0q-0.03125 0.765625 -0.484375 1.40625q-0.4375 0.640625 -1.1875 1.0q-0.734375 0.359375 -1.578125 0.359375q-1.65625 0 -2.640625 -1.15625q-0.96875 -1.15625 -0.96875 -3.109375l0 -0.28125q0 -1.25 0.4375 -2.203125q0.4375 -0.96875 1.25 -1.484375q0.828125 -0.53125 1.921875 -0.53125q1.390625 0 2.28125 0.828125q0.90625 0.828125 0.96875 2.171875l-0.890625 0q-0.0625 -0.984375 -0.71875 -1.59375q-0.65625 -0.609375 -1.640625 -0.609375q-1.265625 0 -1.96875 0.921875q-0.703125 0.90625 -0.703125 2.546875l0 0.28125q0 1.609375 0.703125 2.515625q0.703125 0.90625 1.96875 0.90625zm9.0234375 -7.015625q-0.296875 -0.0625 -0.625 -0.0625q-0.875 0 -1.484375 0.5q-0.609375 0.484375 -0.859375 1.40625l0 5.8125l-0.9375 0l0 -8.453125l0.921875 0l0.015625 1.34375q0.734375 -1.5 2.375 -1.5q0.390625 0 0.625 0.09375l-0.03125 0.859375zm0.8046875 3.296875q0 -1.21875 0.46875 -2.1875q0.484375 -0.984375 1.34375 -1.515625q0.859375 -0.546875 1.953125 -0.546875q1.6875 0 2.734375 1.1875q1.046875 1.171875 1.046875 3.125l0 0.203125q0 1.21875 -0.46875 2.203125q-0.46875 0.984375 -1.328125 1.515625q-0.859375 0.53125 -1.96875 0.53125q-1.671875 0 -2.734375 -1.1875q-1.046875 -1.1875 -1.046875 -3.140625l0 -0.1875zm0.9375 0.265625q0 1.515625 0.78125 2.484375q0.796875 0.96875 2.0625 0.96875q1.265625 0 2.046875 -0.96875q0.796875 -0.96875 0.796875 -2.5625l0 -0.1875q0 -0.96875 -0.359375 -1.765625q-0.359375 -0.8125 -1.015625 -1.25q-0.640625 -0.4375 -1.484375 -0.4375q-1.25 0 -2.046875 0.984375q-0.78125 0.96875 -0.78125 2.5625l0 0.171875zm10.5703125 2.140625l0.140625 0.734375l0.1875 -0.765625l2.03125 -6.46875l0.796875 0l2.0 6.40625l0.21875 0.890625l0.1875 -0.8125l1.734375 -6.484375l0.96875 0l-2.46875 8.453125l-0.796875 0l-2.171875 -6.703125l-0.09375 -0.46875l-0.109375 0.46875l-2.125 6.703125l-0.796875 0l-2.453125 -8.453125l0.953125 0l1.796875 6.5z" fill-rule="nonzero"/><path fill="#fff2cc" d="m403.35696 154.11023l96.66141 0l0 33.259842l-96.66141 0z" fill-rule="evenodd"/><path stroke="#78909c" stroke-width="1.0" stroke-linejoin="round" stroke-linecap="round" d="m403.35696 154.11023l96.66141 0l0 33.259842l-96.66141 0z" fill-rule="evenodd"/><path fill="#595959" d="m429.93765 171.85953l0 4.640625l-0.96875 0l0 -11.375l3.875 0q1.78125 0 2.796875 0.90625q1.03125 0.90625 1.03125 2.484375q0 1.609375 -0.984375 2.484375q-0.984375 0.859375 -2.859375 0.859375l-2.890625 0zm0 -0.8125l2.90625 0q1.40625 0 2.140625 -0.65625q0.734375 -0.671875 0.734375 -1.859375q0 -1.171875 -0.734375 -1.875q-0.734375 -0.703125 -2.078125 -0.71875l-2.96875 0l0 5.109375zm12.5703125 -2.203125q-0.296875 -0.0625 -0.625 -0.0625q-0.875 0 -1.484375 0.5q-0.609375 0.484375 -0.859375 1.40625l0 5.8125l-0.9375 0l0 -8.453125l0.921875 0l0.015625 1.34375q0.734375 -1.5 2.375 -1.5q0.390625 0 0.625 0.09375l-0.03125 0.859375zm2.5234375 7.65625l-0.9375 0l0 -8.453125l0.9375 0l0 8.453125zm-1.09375 -10.90625q0 -0.265625 0.171875 -0.4375q0.171875 -0.1875 0.46875 -0.1875q0.296875 0 0.46875 0.1875q0.171875 0.171875 0.171875 0.4375q0 0.265625 -0.171875 0.453125q-0.171875 0.171875 -0.46875 0.171875q-0.296875 0 -0.46875 -0.171875q-0.171875 -0.1875 -0.171875 -0.453125zm6.7578125 10.265625q0.984375 0 1.640625 -0.546875q0.65625 -0.546875 0.71875 -1.421875l0.890625 0q-0.03125 0.765625 -0.484375 1.40625q-0.4375 0.640625 -1.1875 1.0q-0.734375 0.359375 -1.578125 0.359375q-1.65625 0 -2.640625 -1.15625q-0.96875 -1.15625 -0.96875 -3.109375l0 -0.28125q0 -1.25 0.4375 -2.203125q0.4375 -0.96875 1.25 -1.484375q0.828125 -0.53125 1.921875 -0.53125q1.390625 0 2.28125 0.828125q0.90625 0.828125 0.96875 2.171875l-0.890625 0q-0.0625 -0.984375 -0.71875 -1.59375q-0.65625 -0.609375 -1.640625 -0.609375q-1.265625 0 -1.96875 0.921875q-0.703125 0.90625 -0.703125 2.546875l0 0.28125q0 1.609375 0.703125 2.515625q0.703125 0.90625 1.96875 0.90625zm6.1640625 0.640625l-0.9375 0l0 -8.453125l0.9375 0l0 8.453125zm-1.09375 -10.90625q0 -0.265625 0.171875 -0.4375q0.171875 -0.1875 0.46875 -0.1875q0.296875 0 0.46875 0.1875q0.171875 0.171875 0.171875 0.4375q0 0.265625 -0.171875 0.453125q-0.171875 0.171875 -0.46875 0.171875q-0.296875 0 -0.46875 -0.171875q-0.171875 -0.1875 -0.171875 -0.453125zm4.5234375 2.453125l0.03125 1.4375q0.484375 -0.78125 1.1875 -1.1875q0.71875 -0.40625 1.578125 -0.40625q1.359375 0 2.015625 0.765625q0.671875 0.765625 0.671875 2.296875l0 5.546875l-0.921875 0l0 -5.5625q-0.015625 -1.125 -0.484375 -1.671875q-0.46875 -0.5625 -1.515625 -0.5625q-0.859375 0 -1.53125 0.546875q-0.671875 0.53125 -0.984375 1.453125l0 5.796875l-0.9375 0l0 -8.453125l0.890625 0zm7.5234375 4.140625q0 -1.984375 0.875 -3.140625q0.890625 -1.15625 2.390625 -1.15625q1.734375 0 2.625 1.375l0.046875 -1.21875l0.875 0l0 8.28125q0 1.640625 -0.921875 2.59375q-0.90625 0.953125 -2.46875 0.953125q-0.875 0 -1.6875 -0.40625q-0.796875 -0.390625 -1.25 -1.046875l0.515625 -0.5625q1.0 1.21875 2.359375 1.21875q1.171875 0 1.828125 -0.6875q0.65625 -0.6875 0.6875 -1.921875l0 -1.0625q-0.90625 1.25 -2.625 1.25q-1.46875 0 -2.359375 -1.171875q-0.890625 -1.171875 -0.890625 -3.171875l0 -0.125zm0.953125 0.171875q0 1.609375 0.640625 2.546875q0.65625 0.9375 1.828125 0.9375q1.734375 0 2.453125 -1.546875l0 -3.9375q-0.328125 -0.8125 -0.953125 -1.234375q-0.609375 -0.421875 -1.484375 -0.421875q-1.171875 0 -1.828125 0.921875q-0.65625 0.921875 -0.65625 2.734375z" fill-rule="nonzero"/><path fill="#fff2cc" d="m523.35693 154.11023l96.66144 0l0 33.259842l-96.66144 0z" fill-rule="evenodd"/><path stroke="#78909c" stroke-width="1.0" stroke-linejoin="round" stroke-linecap="round" d="m523.35693 154.11023l96.66144 0l0 33.259842l-96.66144 0z" fill-rule="evenodd"/><path fill="#595959" d="m549.6799 173.70328q0 -0.953125 -0.671875 -1.5q-0.65625 -0.546875 -2.421875 -1.046875q-1.765625 -0.5 -2.578125 -1.078125q-1.15625 -0.828125 -1.15625 -2.171875q0 -1.3125 1.078125 -2.125q1.078125 -0.8125 2.75 -0.8125q1.125 0 2.015625 0.4375q0.90625 0.4375 1.390625 1.21875q0.5 0.78125 0.5 1.734375l-0.96875 0q0 -1.15625 -0.796875 -1.859375q-0.796875 -0.71875 -2.140625 -0.71875q-1.3125 0 -2.09375 0.59375q-0.765625 0.578125 -0.765625 1.515625q0 0.859375 0.6875 1.40625q0.703125 0.546875 2.234375 0.96875q1.53125 0.421875 2.3125 0.875q0.796875 0.4375 1.1875 1.0625q0.40625 0.625 0.40625 1.484375q0 1.34375 -1.078125 2.15625q-1.0625 0.8125 -2.828125 0.8125q-1.203125 0 -2.203125 -0.421875q-1.0 -0.4375 -1.53125 -1.203125q-0.515625 -0.78125 -0.515625 -1.78125l0.96875 0q0 1.203125 0.890625 1.90625q0.90625 0.6875 2.390625 0.6875q1.328125 0 2.125 -0.578125q0.8125 -0.59375 0.8125 -1.5625zm3.8671875 2.796875l-0.9375 0l0 -12.0l0.9375 0l0 12.0zm7.8828125 0q-0.140625 -0.40625 -0.1875 -1.1875q-0.484375 0.640625 -1.25 1.0q-0.765625 0.34375 -1.609375 0.34375q-1.21875 0 -1.984375 -0.671875q-0.75 -0.6875 -0.75 -1.734375q0 -1.234375 1.03125 -1.953125q1.03125 -0.71875 2.859375 -0.71875l1.703125 0l0 -0.953125q0 -0.90625 -0.5625 -1.421875q-0.5625 -0.53125 -1.625 -0.53125q-0.984375 0 -1.625 0.5q-0.640625 0.5 -0.640625 1.203125l-0.9375 0q0 -1.015625 0.9375 -1.75q0.9375 -0.734375 2.3125 -0.734375q1.40625 0 2.21875 0.703125q0.828125 0.703125 0.84375 1.96875l0 4.0q0 1.234375 0.265625 1.84375l0 0.09375l-1.0 0zm-2.9375 -0.671875q0.9375 0 1.671875 -0.453125q0.734375 -0.453125 1.078125 -1.21875l0 -1.859375l-1.671875 0q-1.40625 0.015625 -2.203125 0.515625q-0.78125 0.5 -0.78125 1.359375q0 0.71875 0.53125 1.1875q0.53125 0.46875 1.375 0.46875zm11.2265625 -1.484375q0 -0.6875 -0.5625 -1.109375q-0.546875 -0.421875 -1.671875 -0.65625q-1.125 -0.25 -1.75 -0.546875q-0.625 -0.3125 -0.921875 -0.75q-0.296875 -0.453125 -0.296875 -1.09375q0 -1.0 0.828125 -1.640625q0.84375 -0.65625 2.140625 -0.65625q1.421875 0 2.265625 0.703125q0.859375 0.6875 0.859375 1.8125l-0.9375 0q0 -0.734375 -0.625 -1.21875q-0.609375 -0.5 -1.5625 -0.5q-0.921875 0 -1.484375 0.40625q-0.546875 0.40625 -0.546875 1.0625q0 0.640625 0.453125 0.984375q0.46875 0.34375 1.703125 0.640625q1.234375 0.28125 1.84375 0.609375q0.609375 0.328125 0.90625 0.796875q0.296875 0.453125 0.296875 1.109375q0 1.078125 -0.859375 1.71875q-0.859375 0.640625 -2.25 0.640625q-1.484375 0 -2.40625 -0.71875q-0.90625 -0.71875 -0.90625 -1.8125l0.9375 0q0.046875 0.828125 0.6875 1.28125q0.640625 0.453125 1.6875 0.453125q0.96875 0 1.5625 -0.421875q0.609375 -0.4375 0.609375 -1.09375zm3.9765625 -4.875q0.453125 -0.75 1.171875 -1.15625q0.71875 -0.421875 1.578125 -0.421875q1.359375 0 2.015625 0.765625q0.671875 0.765625 0.671875 2.296875l0 5.546875l-0.921875 0l0 -5.5625q-0.015625 -1.125 -0.484375 -1.671875q-0.46875 -0.5625 -1.515625 -0.5625q-0.859375 0 -1.53125 0.546875q-0.671875 0.53125 -0.984375 1.453125l0 5.796875l-0.9375 0l0 -12.0l0.9375 0l0 4.96875zm8.890625 7.03125l-0.9375 0l0 -8.453125l0.9375 0l0 8.453125zm-1.09375 -10.90625q0 -0.265625 0.171875 -0.4375q0.171875 -0.1875 0.46875 -0.1875q0.296875 0 0.46875 0.1875q0.171875 0.171875 0.171875 0.4375q0 0.265625 -0.171875 0.453125q-0.171875 0.171875 -0.46875 0.171875q-0.296875 0 -0.46875 -0.171875q-0.171875 -0.1875 -0.171875 -0.453125zm4.5234375 2.453125l0.03125 1.4375q0.484375 -0.78125 1.1875 -1.1875q0.71875 -0.40625 1.578125 -0.40625q1.359375 0 2.015625 0.765625q0.671875 0.765625 0.671875 2.296875l0 5.546875l-0.921875 0l0 -5.5625q-0.015625 -1.125 -0.484375 -1.671875q-0.46875 -0.5625 -1.515625 -0.5625q-0.859375 0 -1.53125 0.546875q-0.671875 0.53125 -0.984375 1.453125l0 5.796875l-0.9375 0l0 -8.453125l0.890625 0zm7.5234375 4.140625q0 -1.984375 0.875 -3.140625q0.890625 -1.15625 2.390625 -1.15625q1.734375 0 2.625 1.375l0.046875 -1.21875l0.875 0l0 8.28125q0 1.640625 -0.921875 2.59375q-0.90625 0.953125 -2.46875 0.953125q-0.875 0 -1.6875 -0.40625q-0.796875 -0.390625 -1.25 -1.046875l0.515625 -0.5625q1.0 1.21875 2.359375 1.21875q1.171875 0 1.828125 -0.6875q0.65625 -0.6875 0.6875 -1.921875l0 -1.0625q-0.90625 1.25 -2.625 1.25q-1.46875 0 -2.359375 -1.171875q-0.890625 -1.171875 -0.890625 -3.171875l0 -0.125zm0.953125 0.171875q0 1.609375 0.640625 2.546875q0.65625 0.9375 1.828125 0.9375q1.734375 0 2.453125 -1.546875l0 -3.9375q-0.328125 -0.8125 -0.953125 -1.234375q-0.609375 -0.421875 -1.484375 -0.421875q-1.171875 0 -1.828125 0.921875q-0.65625 0.921875 -0.65625 2.734375z" fill-rule="nonzero"/></g></svg>